<?xml version="1.0" standalone="no"?> <!DOCTYPE svg PUBLIC "-//W3C//DTD SVG 1.0//EN" "http://www.w3.org/TR/2001/REC-SVG-20010904/DTD/svg10.dtd" > <svg xmlns="http://www.w3.org/2000/svg" width="100%" height="100%">
<defs >
<font id="Fontin-SmallCaps" horiz-adv-x="988" ><font-face
    font-family="Fontin SmallCaps"
    units-per-em="2048"
    panose-1="2 0 5 3 0 0 0 0 0 0"
    ascent="1581"
    descent="-520"
    alphabetic="0" />
<missing-glyph horiz-adv-x="748" d="M68 0V1365H612V0H68ZM136 68H544V1297H136V68Z" />
<glyph unicode=" " glyph-name="space" horiz-adv-x="583" />
<glyph unicode="!" glyph-name="exclam" horiz-adv-x="501" d="M295 311H219L162 1022Q159 1059 150 1087T132 1126L123 1135V1174L140 1184Q156 1193 185 1202T240 1212Q316 1212 347 1183T379 1096Q379 1060 362 967Q344 859 340 807L295 311ZM365 84Q365 38
333 6T256 -27Q210 -27 178 5T145 84Q145 128 177 160T256 193Q300 193 332 161T365 84Z" />
<glyph unicode="&quot;" glyph-name="quotedbl" horiz-adv-x="802" d="M266 1554H373L350 1389Q320 1179 164 1118Q139 1109 113 1111T82 1118Q122 1154 145 1213T177 1328T193 1437T217 1522T266 1554ZM594 1554H700L678 1389Q647 1179 492 1118Q467 1109 441
1111T410 1118Q450 1154 473 1213T505 1328T520 1437T545 1522T594 1554Z" />
<glyph unicode="#" glyph-name="numbersign" horiz-adv-x="1441" d="M129 782L143 913Q143 909 444 905Q463 1115 463 1210Q463 1269 446 1337Q497 1376 537 1376Q560 1376 574 1366T595 1332T602 1289T604 1233Q604 1183 571 905H842Q860 1121 860 1210Q860 1262
844 1337Q895 1376 934 1376Q957 1376 971 1366T992 1332T999 1289T1001 1233Q1001 1189 969 905H1067Q1121 905 1169 905T1254 906T1317 911T1352 922Q1347 891 1335 868T1305 830T1265 805T1217 791T1163 784T1107 782T1049 782H954Q949 736 940 648T926 518H1030Q1084
518 1132 518T1218 519T1280 524T1315 535Q1310 504 1298 481T1268 443T1228 418T1180 404T1126 397T1070 395T1012 395H913Q890 182 883 16L743 -14Q773 228 791 395H516Q491 167 485 16L346 -14Q379 253 393 397H129Q100 397 92 395L106 526Q106 522 408 518Q431
758 434 784H166Q137 784 129 782ZM803 518Q807 553 831 782H559L528 518H803Z" />
<glyph unicode="$" glyph-name="dollar" horiz-adv-x="937" d="M555 -217H455Q455 -88 457 -27Q323 -26 243 30T162 158Q162 197 186 227Q199 182 277 146T451 109H457Q461 481 461 592Q418 620 407 627T357 662T304 702T259 741T215 786T181 833T152 888T136
946T129 1012Q129 1097 164 1173T276 1306T455 1374Q454 1404 446 1516Q494 1526 504 1526Q533 1526 545 1505T555 1451T553 1376Q676 1368 759 1316T842 1180Q842 1143 823 1102Q817 1156 735 1196T551 1243Q550 1187 549 1037T547 813Q598 782 632 760T712 704T788
636T846 561T887 470T901 365Q901 221 805 114T551 -18L555 -217ZM707 305Q707 370 665 424T545 535Q543 420 547 119Q618 137 662 183T707 305ZM287 1067Q287 1012 331 965T461 864Q461 1143 459 1239Q381 1228 334 1186T287 1067Z" />
<glyph unicode="%" glyph-name="percent" horiz-adv-x="1634" d="M432 0H287Q813 751 998 1026T1188 1350Q1228 1380 1270 1380Q1331 1380 1331 1339Q1331 1321 1319 1295T1292 1248T1259 1202T1235 1169Q1233 1166 1050 907T679 375T432 0ZM1249 662Q1094 662
998 563T901 307Q901 146 977 62T1171 -23Q1327 -23 1426 80T1528 334Q1528 490 1450 576T1249 662ZM1221 59Q1135 59 1087 138T1038 350Q1038 456 1082 517T1200 578Q1289 578 1342 502T1395 297Q1395 190 1345 125T1221 59ZM481 1378Q326 1378 230 1280T133 1024Q133
863 209 779T403 694Q559 694 658 797T760 1051Q760 1207 682 1292T481 1378ZM453 776Q367 776 319 855T270 1067Q270 1172 314 1233T432 1294Q521 1294 574 1219T627 1014Q627 906 577 841T453 776Z" />
<glyph unicode="&amp;" glyph-name="ampersand" horiz-adv-x="1335" d="M924 807L907 782L914 734Q922 686 922 651Q922 600 921 568T913 483T891 380T850 287Q669 449 512 674Q535 687 556 700T629 753T716 831T781 923T811 1030Q811 1122 733 1179T530 1237Q376
1237 285 1162T193 965Q193 909 227 820T322 633Q214 561 153 473T92 289Q92 161 189 71T449 -20Q675 -20 803 96Q880 39 964 10T1122 -20Q1213 -20 1262 20T1311 115Q1256 92 1204 92Q1082 92 913 231Q1017 416 1030 698Q1044 698 1071 697T1110 696Q1164 696
1204 724T1245 793L1243 825L1239 820Q1235 816 1220 812T1180 807H924ZM358 578Q538 310 733 150Q668 100 553 100Q430 100 347 183T264 381Q264 508 358 578ZM674 995Q674 857 475 731Q358 910 358 1020Q358 1084 398 1119T510 1155Q590 1155 632 1114T674 995Z"
/>
<glyph unicode="&apos;" glyph-name="quotesingle" horiz-adv-x="475" d="M266 1554H373L350 1389Q320 1179 164 1118Q139 1109 113 1111T82 1118Q122 1154 145 1213T177 1328T193 1437T217 1522T266 1554Z" />
<glyph unicode="(" glyph-name="parenleft" horiz-adv-x="675" d="M131 485Q131 241 198 9T380 -372T621 -520Q611 -520 578 -473T500 -331T413 -120T342 160T313 485Q313 640 340 787T408 1038T492 1222T571 1341T621 1380Q484 1380 370 1252T194 918T131 485Z" />
<glyph unicode=")" glyph-name="parenright" horiz-adv-x="675" d="M545 485Q545 242 477 9T295 -372T55 -520Q65 -520 98 -473T175 -331T262 -120T333 160T362 485Q362 640 335 787T267 1038T183 1222T104 1341T55 1380Q192 1380 306 1252T482 918T545 485Z" />
<glyph unicode="*" glyph-name="asterisk" horiz-adv-x="823" d="M524 1274L510 1249L504 1243H565Q646 1243 684 1243T761 1248T811 1260Q805 1223 788 1197T750 1156T695 1133T634 1123T565 1120H506L514 1108Q552 1044 581 994T634 910T670 870Q636 858 608
858T554 870T511 896T472 942T440 992T406 1053L397 1077L387 1053Q361 1008 339 970T300 901T275 849T266 813V809Q207 857 207 924Q207 954 220 992T248 1057T289 1128Q250 1130 178 1130Q28 1130 4 1112Q9 1141 21 1163T48 1200T86 1225T129 1240T180 1247T232
1250T287 1251H301L297 1257Q174 1481 139 1495Q174 1507 199 1507Q231 1507 259 1493T313 1448T355 1395T397 1327L406 1305L414 1327Q541 1534 541 1577V1581Q600 1533 600 1468Q600 1440 587 1403T562 1342T524 1274Z" />
<glyph unicode="+" glyph-name="plus" horiz-adv-x="964" d="M535 139H403Q412 139 412 457Q363 457 302 457T198 458T150 459Q121 459 113 457V588Q113 580 412 580V606Q412 660 412 708T411 793T406 855T395 889Q442 899 461 899Q493 899 511 886T533 850T539
797T539 735Q539 731 538 678T537 580H580Q634 580 682 580T767 581T829 586T864 596Q859 565 847 542T817 505T777 480T729 465T675 459T619 457T561 457H535Q532 358 532 176Q532 147 535 139Z" />
<glyph unicode="," glyph-name="comma" horiz-adv-x="409" d="M43 -295L6 -246Q141 -117 141 -20Q141 70 82 70Q76 118 108 155T186 193Q244 193 273 159T303 61Q303 -19 235 -117T43 -295Z" />
<glyph unicode="-" glyph-name="hyphen" horiz-adv-x="618" d="M59 436V567Q59 559 281 559Q335 559 383 559T468 560T530 565T565 575Q560 544 548 521T518 484T478 459T430 444T376 438T320 436T262 436Q235 436 172 437T96 438Q68 438 59 436Z" />
<glyph unicode="." glyph-name="period" horiz-adv-x="409" d="M301 84Q301 38 269 6T193 -27Q147 -27 115 5T82 84Q82 129 114 161T193 193Q237 193 269 161T301 84Z" />
<glyph unicode="/" glyph-name="slash" horiz-adv-x="595" d="M129 -500H-33Q151 236 258 747T356 1341Q365 1356 409 1373T494 1391Q538 1391 541 1337Q544 1313 538 1280T522 1213T510 1169Q509 1164 469 998T380 622T277 183T182 -238T129 -500Z" />
<glyph unicode="0" glyph-name="zero" horiz-adv-x="1001" d="M543 1204Q404 1204 299 1121T138 894T82 567Q82 444 102 344T158 175T242 60T342 -8T453 -29Q598 -29 705 58T866 290T920 614Q920 760 890 875T808 1060T689 1167T543 1204ZM518 78Q410 78 338 241T260
651Q262 828 322 952T467 1077Q579 1077 658 925T737 537Q737 409 704 302T621 136T518 78Z" />
<glyph unicode="1" glyph-name="one" horiz-adv-x="1001" d="M711 0H508V8L514 860Q514 970 477 999L180 907L143 1010L614 1208H645L696 1122L693 1054Q690 986 690 965L694 154Q694 74 711 0Z" />
<glyph unicode="2" glyph-name="two" horiz-adv-x="1001" d="M125 0H721Q814 0 851 34T889 117Q889 143 883 164Q864 145 829 142T639 139H289L328 172Q368 204 428 258T557 389T686 549T785 729T825 913Q825 969 805 1019T744 1111T629 1179T459 1204Q376 1204
301 1181T177 1114T129 1018Q129 984 155 960T219 936Q253 936 285 958V973Q285 1023 330 1062T438 1102Q528 1102 573 1029T618 850Q618 758 568 647T445 441T300 268T176 139L125 90V0Z" />
<glyph unicode="3" glyph-name="three" horiz-adv-x="1001" d="M211 -170Q178 -170 154 -156T120 -125T106 -94L102 -80Q136 -84 156 -84Q221 -84 285 -73T414 -35T528 32T610 135T645 276Q645 328 636 371T612 443T575 495T530 532T479 555T428 570T377 580L399
635L403 637Q494 679 554 756T614 915Q614 960 599 1000T545 1071T446 1102Q381 1102 334 1063T293 958Q238 921 188 942T137 1018Q137 1096 230 1150T451 1204Q544 1204 616 1181T730 1120T793 1037T815 946Q815 857 749 780T563 641Q610 634 646 624T725 590T795
534T841 444T860 315Q860 215 819 132T712 -5T560 -98T386 -153T211 -170Z" />
<glyph unicode="4" glyph-name="four" horiz-adv-x="1001" d="M57 203L31 233Q72 362 190 580T433 983T618 1208H743L739 1122L736 1054Q733 986 733 965V342Q846 342 887 346T946 367Q985 205 784 203H735Q735 53 737 -14Q737 -94 754 -168H551V-160L553 203H57ZM571
1004Q508 933 389 718T211 342H553L557 848Q559 928 571 1004Z" />
<glyph unicode="5" glyph-name="five" horiz-adv-x="1001" d="M250 1178H582Q736 1178 771 1181T825 1202Q830 1181 831 1162T826 1119T803 1079T751 1051T664 1038H324L311 750Q838 750 838 336Q838 236 804 151T711 8T577 -91T418 -151T250 -170Q217 -170 193
-156T159 -125T145 -94L141 -80Q175 -84 195 -84Q274 -84 347 -62T481 4T581 124T623 297Q623 369 606 427T561 522T497 585T426 623T354 641Q285 652 244 648L203 643L184 676L217 1151L250 1178Z" />
<glyph unicode="6" glyph-name="six" horiz-adv-x="1001" d="M602 848Q455 848 307 741Q326 998 418 1123T647 1249Q724 1249 784 1225T872 1157Q881 1184 881 1214Q881 1258 857 1289T791 1337T704 1361T606 1368Q535 1368 467 1343T331 1258T214 1109T132 881T100
569Q100 480 112 398T153 237T225 101T337 8T492 -27Q627 -27 725 45T871 229T918 477Q918 664 831 756T602 848ZM303 633V686Q340 709 394 724T500 739Q725 739 725 397Q725 78 541 78Q484 78 441 112T372 200T330 330T309 478T303 633Z" />
<glyph unicode="7" glyph-name="seven" horiz-adv-x="1001" d="M436 -49L950 1143L918 1178H375Q328 1178 291 1178T226 1178T178 1180T143 1184T119 1191T102 1202Q99 1189 99 1175T101 1143T113 1108T137 1074T176 1042T233 1016T311 998T414 991Q511 991 589
999T696 1016L725 1024L328 80Q297 -2 270 -51T227 -114T190 -137Q212 -153 241 -161T307 -169T378 -137T436 -49Z" />
<glyph unicode="8" glyph-name="eight" horiz-adv-x="1001" d="M109 291Q109 375 137 447T210 568T295 646T375 696Q323 737 286 771T214 848T161 935T143 1028Q143 1181 247 1274T530 1368Q675 1368 765 1297T856 1110Q856 1058 837 1008T792 922T730 853T669
801T618 768Q676 725 712 697T794 625T867 545T913 463T932 369Q932 197 802 85T477 -27Q425 -27 376 -17T277 17T191 76T132 166T109 291ZM496 82Q587 81 663 148T739 297Q739 329 728 360T695 420T646 478T585 533T516 589T442 645Q260 547 260 332Q260 221 327
153T496 82ZM324 1096Q324 1026 382 962T553 815Q578 828 601 846T651 895T693 970T709 1067Q709 1161 656 1213T508 1266Q424 1266 374 1221T324 1096Z" />
<glyph unicode="9" glyph-name="nine" horiz-adv-x="1001" d="M385 330H408Q550 330 700 434Q678 177 589 53T362 -72Q288 -72 219 -39T117 41Q109 13 109 -14Q109 -74 156 -115T268 -173T406 -190Q477 -190 545 -165T680 -79T797 72T878 303T909 618Q909 707
897 788T856 946T783 1079T671 1170T518 1204Q416 1204 334 1163T201 1050T122 888T94 694Q94 519 173 427T385 330ZM479 1100Q544 1097 591 1049T662 921T696 756T707 573Q707 516 705 489Q669 469 615 455T512 440Q287 440 287 776Q287 1100 469 1100H479Z" />
<glyph unicode=":" glyph-name="colon" horiz-adv-x="528" d="M387 86Q387 37 354 3T272 -31Q223 -31 190 3T156 86Q156 134 189 167T272 201Q320 201 353 168T387 86ZM387 676Q387 627 354 593T272 559Q223 559 190 593T156 676Q156 724 190 757T272 791T353
757T387 676Z" />
<glyph unicode=";" glyph-name="semicolon" horiz-adv-x="528" d="M342 670Q342 624 310 592T233 559Q187 559 155 591T123 670Q123 714 155 746T233 778Q278 778 310 746T342 670ZM84 -295L47 -246Q182 -117 182 -20Q182 70 123 70Q117 118 149 155T227 193Q285
193 314 159T344 61Q344 -19 276 -117T84 -295Z" />
<glyph unicode="&lt;" glyph-name="less" horiz-adv-x="755" d="M268 506L294 527Q320 548 336 569L563 872L578 890Q593 908 617 929T659 956H629Q569 956 499 933T389 866L121 547L80 506L125 461L397 139Q434 96 501 74T629 51H659Q638 60 616 78T582 111L571
125L340 438Q321 461 294 484L268 506Z" />
<glyph unicode="=" glyph-name="equal" horiz-adv-x="983" d="M113 600V731Q113 723 580 723Q634 723 682 723T767 724T829 729T864 739Q859 708 847 685T817 648T777 623T729 608T675 602T619 600T561 600Q534 600 349 601T150 602Q121 602 113 600ZM113 293V424Q113
416 580 416Q634 416 682 416T767 417T829 422T864 432Q859 401 847 378T817 341T777 316T729 301T675 295T619 293T561 293Q534 293 349 294T150 295Q121 295 113 293Z" />
<glyph unicode="&gt;" glyph-name="greater" horiz-adv-x="755" d="M473 506L447 527Q421 548 406 569L178 872L163 890Q148 908 124 929T82 956H113Q172 956 242 933T352 866L623 547Q633 534 648 520L662 506L616 461L344 139Q308 96 240 74T113 51H82Q103 60
125 78T158 111L170 125L401 438Q420 461 446 484L473 506Z" />
<glyph unicode="?" glyph-name="question" horiz-adv-x="753" d="M375 319L328 297Q277 317 240 354T203 446Q203 524 236 594T317 714T411 807T492 891T526 969Q526 1039 485 1078T377 1118Q330 1118 298 1090T266 1008Q266 984 274 963Q245 924 190 924Q141
924 117 951T92 1012Q92 1076 133 1122T236 1189T367 1210Q498 1210 595 1136T692 932Q692 869 656 808T567 698T463 600T375 499T338 393Q338 349 375 319ZM436 84Q436 38 404 6T328 -27Q282 -27 250 5T217 84Q217 129 249 161T328 193Q372 193 404 161T436 84Z"
/>
<glyph unicode="@" glyph-name="at" horiz-adv-x="1847" d="M1219 348Q1220 305 1219 265T1222 191T1236 131T1266 91T1319 76Q1386 76 1449 142T1552 326T1593 578Q1593 753 1507 902T1270 1138T942 1225Q748 1225 592 1125T348 849T260 455Q260 168 407 -28T797
-268Q811 -272 846 -272Q904 -272 924 -260Q891 -381 735 -381Q609 -381 492 -314T293 -137T161 115T111 406Q111 597 181 771T368 1071T649 1273T991 1348Q1194 1348 1361 1255T1624 998T1720 631Q1720 456 1656 299T1477 44T1225 -55Q1135 -55 1084 0T1042 174Q993
76 919 27T770 -23Q648 -23 559 98T469 381Q469 521 516 644T643 852T830 987T1057 1036Q1150 1036 1245 1006Q1235 924 1231 825T1223 557T1219 348ZM1030 219L1057 946Q1045 946 1039 946T1002 942T946 930T884 904T817 862T756 796T702 703T667 578T653 416Q653
299 717 212T868 125Q958 125 1030 219Z" />
<glyph unicode="A" glyph-name="A" horiz-adv-x="1208" d="M717 1395Q728 1338 766 1221L1126 164Q1151 77 1198 0H950Q945 46 936 70L799 471H324L168 27Q166 20 165 11T162 0H10L475 1221Q487 1260 506 1289T544 1335T589 1362T633 1378T678 1387T717 1395ZM764
569L565 1153L358 569H764Z" />
<glyph unicode="B" glyph-name="B" horiz-adv-x="1138" d="M225 0L227 139V1085Q227 1131 224 1167T215 1225T203 1264T189 1291T174 1313L188 1348L551 1358Q648 1361 726 1337T850 1269T921 1174T946 1065Q946 975 894 900T748 770Q809 752 858 724T948 654T1013
551T1036 414Q1036 225 904 113T549 0H225ZM518 698L432 702Q428 301 436 98H567Q710 98 782 170T854 346Q854 513 761 602T518 698ZM543 797Q612 797 680 784Q772 872 772 1008Q772 1118 707 1182T543 1245L442 1243Q442 1112 440 1024Q434 802 434 797H543Z"
/>
<glyph unicode="C" glyph-name="C" horiz-adv-x="1247" d="M1157 311Q1165 295 1165 268Q1165 181 1102 113T934 9T700 -27Q559 -27 446 24T258 166T145 379T106 645Q106 856 187 1021T418 1279T762 1372Q893 1372 1010 1322T1161 1202Q1161 1166 1121 1102T1032
1016L999 1042Q999 1065 984 1097T939 1165T857 1224T737 1249Q655 1249 587 1221T473 1145T394 1030T347 889T332 733Q332 611 361 501T445 304T589 165T791 113Q890 113 997 165T1157 311Z" />
<glyph unicode="D" glyph-name="D" horiz-adv-x="1386" d="M659 0H225Q227 35 227 96V139V1069Q227 1122 225 1156T211 1237T174 1313L188 1348L651 1358Q749 1360 840 1336T1011 1259T1151 1131T1245 949T1280 715Q1280 564 1236 433T1112 206T915 55T659 0ZM684
109Q752 109 818 145T937 244T1023 403T1057 608Q1059 785 993 933T810 1164T557 1243L442 1239Q442 1232 437 949T432 508Q432 277 438 109H684Z" />
<glyph unicode="E" glyph-name="E" horiz-adv-x="1024" d="M227 1085Q227 1131 224 1167T215 1225T203 1264T189 1291T174 1313L188 1348H496L846 1354Q869 1330 879 1279T887 1183T872 1126H834Q824 1173 764 1204T618 1239L444 1245Q430 1002 430 745H752Q780
745 799 751T822 765L827 772Q831 772 831 731Q831 707 824 689T808 659T781 639T751 626T715 620T681 618T647 618Q645 618 597 619T506 621T428 621Q426 419 434 141Q434 137 438 129H827Q855 129 874 135T898 149L903 156Q907 156 907 115Q907 87 899 67T875
34T843 15T802 4T763 1T723 0H225L227 139V1085Z" />
<glyph unicode="F" glyph-name="F" horiz-adv-x="972" d="M451 0H225L227 139V1085Q227 1131 224 1167T215 1225T203 1264T189 1291T174 1313L188 1348H498L848 1354Q871 1330 881 1279T889 1183T874 1126H836Q826 1173 766 1204T621 1239L444 1245Q430 1002 430
745H752Q780 745 799 751T822 765L827 772Q831 772 831 731Q831 707 824 689T808 659T781 639T751 626T715 620T681 618T647 618Q645 618 597 619T506 621T428 621Q426 419 434 141Q434 56 451 0Z" />
<glyph unicode="G" glyph-name="G" horiz-adv-x="1323" d="M762 1372H764Q895 1372 1012 1322T1163 1202Q1163 1166 1123 1102T1034 1016L1001 1042Q1001 1065 986 1097T941 1165T857 1224T737 1249Q563 1249 452 1120T334 750Q334 625 360 518T429 336T531 207T654
128T786 102Q828 102 902 118L975 133V291Q975 348 970 389T957 451T940 488T922 516L936 551L954 558Q972 564 1007 571T1077 578Q1140 578 1194 553Q1182 321 1180 229L1182 43L1124 33Q846 -27 670 -27Q560 -27 459 19T279 149T153 362T106 645Q106 856 187
1021T418 1279T762 1372Z" />
<glyph unicode="H" glyph-name="H" horiz-adv-x="1546" d="M1317 541Q1317 47 1339 0H1120Q1114 35 1114 119Q1114 120 1114 198T1115 398T1116 629H426V541Q426 47 449 0H223Q227 136 227 1087Q227 1144 222 1185T209 1247T192 1285T174 1313L188 1348L234 1361Q281
1374 330 1374Q395 1374 446 1350Q431 1018 426 735H1116Q1118 887 1118 1087Q1118 1144 1113 1185T1100 1247T1083 1285T1065 1313L1079 1348L1096 1354Q1114 1361 1149 1367T1219 1374Q1282 1374 1337 1350Q1317 890 1317 541Z" />
<glyph unicode="I" glyph-name="I" horiz-adv-x="653" d="M449 0H223Q227 136 227 1090Q227 1147 222 1188T209 1249T192 1287T174 1315L188 1350L234 1363Q281 1376 330 1376Q395 1376 446 1352Q426 892 426 541Q426 47 449 0Z" />
<glyph unicode="J" glyph-name="J" horiz-adv-x="643" d="M424 121Q423 22 394 -62T317 -206T205 -306T74 -367T-63 -387Q-141 -387 -186 -346T-231 -252Q-231 -214 -206 -189T-133 -164Q-112 -164 -88 -170Q-77 -254 18 -254Q134 -254 180 -162T227 127Q227 1008
223 1090Q223 1147 218 1188T205 1249T188 1287T170 1315L184 1350L230 1363Q277 1376 326 1376Q390 1376 442 1352Q422 892 422 541Q422 484 423 329T424 121Z" />
<glyph unicode="K" glyph-name="K" horiz-adv-x="1189" d="M449 0H223Q227 136 227 1090Q227 1147 222 1188T209 1249T192 1287T174 1315L188 1350L234 1363Q281 1376 330 1376Q395 1376 446 1352Q431 1011 426 713L850 1180Q895 1226 895 1276Q895 1295 885 1315L899
1350Q955 1372 1038 1372Q1130 1372 1153 1352Q1114 1281 1079 1237T935 1081T614 756Q652 706 814 487T1078 136T1190 0H905Q809 153 684 333T473 612L426 670V541Q426 47 449 0Z" />
<glyph unicode="L" glyph-name="L" horiz-adv-x="964" d="M897 0H223Q227 136 227 1090Q227 1147 222 1188T209 1249T192 1287T174 1315L188 1350L234 1363Q281 1376 330 1376Q395 1376 446 1352Q426 892 426 541Q426 225 432 113H668Q756 113 814 143T883 221H922Q943
196 936 114T897 0Z" />
<glyph unicode="M" glyph-name="M" horiz-adv-x="1843" d="M965 -43L879 -25Q843 -18 815 0T770 44T744 89T729 131L391 961Q376 1001 356 1079Q360 1023 360 944Q347 133 346 106Q346 33 354 0H205L209 33Q226 345 239 717T254 1237Q218 1302 199 1315L213 1350Q289
1376 354 1376Q441 1376 483 1346Q520 1202 686 789T934 201L1354 1276Q1365 1304 1391 1321T1453 1346T1534 1359T1628 1368Q1625 1320 1625 1285T1624 1182T1622 1032Q1615 682 1634 121Q1638 39 1649 0H1423L1425 123Q1429 356 1425 606T1417 956Q1417 975 1415
1022T1413 1079L1370 946L1020 131L965 -43Z" />
<glyph unicode="N" glyph-name="N" horiz-adv-x="1548" d="M1188 440Q1192 440 1192 1094Q1192 1253 1139 1315L1153 1350Q1189 1374 1255 1374Q1318 1374 1348 1352Q1323 827 1323 391Q1323 160 1333 0H1221L442 891L404 943Q367 995 358 1018Q365 978 365 928T363
777T360 625Q360 169 381 0H233V33Q236 299 236 764V1094Q236 1177 225 1224T182 1315L197 1350Q276 1382 319 1370L1126 442Q1153 413 1178 362L1202 311L1195 362Q1188 413 1188 440Z" />
<glyph unicode="O" glyph-name="O" horiz-adv-x="1392" d="M741 1372Q605 1372 486 1319T282 1171T149 942T100 651Q100 522 129 411T209 220T327 85T468 1T621 -27Q819 -27 970 69T1201 330T1286 698Q1286 860 1243 989T1125 1201T952 1328T741 1372ZM719 96Q611
96 519 185T374 416T322 717Q322 861 367 982T492 1174T670 1245Q774 1245 864 1163T1009 938T1063 629Q1063 484 1019 362T895 168T719 96Z" />
<glyph unicode="P" glyph-name="P" horiz-adv-x="1132" d="M449 0H225V33Q225 96 226 275T227 545Q227 605 228 713T229 880T227 1021T220 1152T202 1245T172 1313L186 1348L555 1360H578Q644 1360 704 1349T825 1309T930 1234T1002 1113T1030 942Q1030 819 964
720T785 567T539 512Q486 512 430 524Q439 72 449 0ZM559 614Q681 614 764 692T848 897Q848 990 820 1061T746 1171T649 1228T547 1245L436 1241Q430 1167 430 694V633Q467 614 559 614Z" />
<glyph unicode="Q" glyph-name="Q" horiz-adv-x="1398" d="M741 1372Q605 1372 486 1319T282 1171T149 942T100 651Q100 522 129 411T209 220T327 85T468 1T621 -27Q624 -27 630 -26T639 -25Q660 -189 774 -288T1032 -387Q1130 -387 1189 -355T1300 -252Q1284
-256 1262 -256Q1156 -256 1061 -232T884 -150T768 -10Q1002 38 1141 232T1286 698Q1286 860 1243 989T1125 1201T952 1328T741 1372ZM719 96Q611 96 519 185T374 416T322 717Q322 861 367 982T492 1174T670 1245Q774 1245 864 1163T1009 938T1063 629Q1063 484
1019 362T895 168T719 96Z" />
<glyph unicode="R" glyph-name="R" horiz-adv-x="1218" d="M449 0H225V33Q225 96 226 275T227 545Q227 605 228 713T229 880T227 1021T220 1152T202 1245T172 1313L186 1348Q563 1358 578 1358Q644 1358 704 1347T825 1307T930 1233T1002 1113T1030 942Q1030 808
953 704T748 551Q774 538 983 279T1219 0H942Q916 53 867 122T762 257T647 391T539 512Q486 512 430 524Q439 72 449 0ZM559 614Q681 614 764 692T848 897Q848 991 820 1062T745 1172T649 1229T547 1245L436 1241Q430 1167 430 694V633Q467 614 559 614Z" />
<glyph unicode="S" glyph-name="S" horiz-adv-x="983" d="M449 -27Q316 -27 215 36T113 180Q113 212 135 248Q148 202 246 160T440 117Q489 117 531 126T612 155T673 214T696 305Q696 360 664 410T582 500T470 580T346 663T234 755T151 870T119 1012Q119 1080
143 1144T214 1261T334 1346T498 1378Q575 1378 645 1360T746 1327T819 1286Q827 1259 828 1218T819 1132T784 1063L745 1071Q723 1139 672 1186T570 1250T475 1268Q398 1268 337 1222T276 1094Q276 1040 310 991T398 903T518 824T649 739T769 643T857 520T891
365Q891 201 767 87T449 -27Z" />
<glyph unicode="T" glyph-name="T" horiz-adv-x="1107" d="M766 1348H350L68 1360Q38 1327 28 1273T21 1179T35 1126H74Q80 1173 139 1204T289 1235H446Q455 1187 455 1079L456 756Q458 432 455 33V0H678Q666 75 666 90Q664 170 664 314T664 611T666 901T669 1136T670
1235H827Q917 1235 976 1204T1042 1126H1081Q1090 1139 1094 1179T1089 1273T1049 1360L766 1348Z" />
<glyph unicode="U" glyph-name="U" horiz-adv-x="1445" d="M1247 444Q1247 239 1108 105T725 -29Q636 -29 566 -17T434 27T329 110T260 242T231 428Q221 818 221 1090Q221 1147 216 1188T203 1250T186 1287T168 1315L182 1350L228 1363Q275 1376 324 1376Q388
1376 440 1352Q430 1098 430 455Q430 369 451 304T505 203T581 145T664 116T743 109Q893 109 994 188T1104 383Q1112 383 1112 1094Q1112 1253 1059 1315L1073 1350Q1109 1374 1176 1374Q1238 1374 1268 1352Q1247 911 1247 444Z" />
<glyph unicode="V" glyph-name="V" horiz-adv-x="1280" d="M733 -43L788 131L1186 1075Q1253 1241 1260 1348Q1219 1376 1153 1376Q1085 1376 1028 1350L1014 1315Q1057 1268 1057 1200Q1057 1142 1026 1065L748 352Q731 310 716 256L702 201Q634 354 488 771T309
1339Q273 1376 186 1376Q107 1376 45 1348L31 1313Q40 1310 57 1290T110 1197T180 1018L498 131Q511 81 546 35T647 -25L733 -43Z" />
<glyph unicode="W" glyph-name="W" horiz-adv-x="1900" d="M1384 -43L1440 131L1800 1075Q1863 1237 1874 1348Q1829 1368 1755 1368Q1683 1368 1642 1348L1628 1313Q1671 1267 1671 1198Q1671 1138 1640 1065L1399 352Q1382 310 1369 256L1356 201Q1295 337 1165
754T997 1339Q961 1376 872 1376Q789 1376 727 1348L713 1313Q722 1310 739 1290T792 1197T862 1018L901 897L717 352Q700 310 687 256L674 201Q613 337 483 754T315 1339Q279 1376 190 1376Q107 1376 45 1348L31 1313Q40 1310 57 1290T110 1197T180 1018L467 131Q480
81 515 35T616 -25L702 -43L758 131L967 692L1149 131Q1162 81 1197 35T1298 -25L1384 -43Z" />
<glyph unicode="X" glyph-name="X" horiz-adv-x="1079" d="M104 100L459 659L264 1020Q208 1127 175 1185T121 1269T63 1313L78 1348Q139 1376 219 1376Q305 1376 342 1339Q374 1270 390 1231T458 1095T604 829L647 907L754 1081Q767 1105 782 1128T809 1184T821
1241Q821 1287 799 1313L813 1348Q861 1376 928 1376Q1000 1376 1044 1348Q1026 1245 907 1067L668 713L993 121Q1010 90 1034 60T1074 14L1090 0H817L528 537L469 434L260 111Q241 75 228 38L215 0H33L104 100Z" />
<glyph unicode="Y" glyph-name="Y" horiz-adv-x="1064" d="M674 0H451V33Q451 117 452 233T453 383Q453 582 451 616Q436 631 408 680L211 1024Q184 1071 153 1129T110 1208T80 1256T47 1293T10 1313L25 1348Q84 1376 168 1376Q255 1376 289 1339Q335 1226 433
1036T586 758L596 784Q607 810 621 834L791 1135Q843 1231 793 1313L807 1348Q868 1376 922 1376Q972 1376 1030 1348Q1030 1312 990 1219T911 1067L659 662Q659 626 658 520T657 352Q657 113 674 0Z" />
<glyph unicode="Z" glyph-name="Z" horiz-adv-x="1159" d="M37 0L31 41L84 104L764 1161L825 1231H631H362Q273 1231 214 1200T147 1122H109Q100 1135 96 1177T101 1275T141 1364L424 1352H1102L1108 1309L1086 1282Q1064 1256 1057 1243L385 199L328 133H563H844Q934
133 993 164T1059 242H1098Q1106 229 1110 187T1105 89T1065 0H782H37Z" />
<glyph unicode="[" glyph-name="bracketleft" horiz-adv-x="507" d="M395 1483V1384H205V-43H395V-141H57V1483H395Z" />
<glyph unicode="\" glyph-name="backslash" horiz-adv-x="729" d="M584 -500H745Q499 227 347 742T195 1341Q186 1355 140 1373T53 1391Q10 1391 10 1337Q10 1313 19 1281T41 1212T57 1169Q147 898 346 280T584 -500Z" />
<glyph unicode="]" glyph-name="bracketright" horiz-adv-x="509" d="M453 1499V-319H135V-201H326V1380H135V1499H453Z" />
<glyph unicode="^" glyph-name="asciicircum" horiz-adv-x="1277" d="M1128 655H985L637 1284L289 655H145L580 1450H694L1128 655Z" />
<glyph unicode="_" glyph-name="underscore" horiz-adv-x="921" d="M983 -154L922 -276H0V-154H983Z" />
<glyph unicode="`" glyph-name="grave" horiz-adv-x="692" d="M250 1524H127L207 1384Q314 1198 483 1198Q506 1198 532 1211T559 1231Q507 1247 468 1283T407 1360T365 1437T316 1499T250 1524Z" />
<glyph unicode="a" glyph-name="a" horiz-adv-x="1067" d="M643 1116Q654 1069 686 977L997 131Q1021 56 1059 0H834Q824 48 821 55L705 371H291L158 20Q156 16 155 9T152 0H8L410 977Q423 1015 444 1041T495 1080T546 1099T601 1109T643 1116ZM672 461L500 922L322
461H672Z" />
<glyph unicode="b" glyph-name="b" horiz-adv-x="1019" d="M182 0L184 111V868Q184 928 176 969T160 1023T137 1057L150 1083L475 1092Q559 1095 627 1075T737 1019T801 940T823 852Q823 718 645 623Q757 592 829 520T901 332Q901 180 785 90T475 0H182ZM449 553L373
555Q370 250 377 90H489Q614 90 672 145T731 283Q731 416 655 482T449 553ZM469 643Q537 643 588 633Q662 703 662 807Q662 895 609 943T469 989H383Q383 889 381 819Q380 799 379 765T376 701T375 643H469Z" />
<glyph unicode="c" glyph-name="c" horiz-adv-x="1107" d="M1020 250Q1028 237 1028 215Q1028 110 911 42T625 -27Q503 -27 405 15T244 130T147 302T113 516Q113 685 183 818T382 1028T678 1104Q792 1104 892 1064T1024 969Q1024 938 989 881T911 807L885 827Q885
845 872 871T833 926T761 973T657 993Q573 993 507 960T401 869T340 740T319 586Q319 455 361 346T492 167T705 96Q793 96 884 135T1020 250Z" />
<glyph unicode="d" glyph-name="d" horiz-adv-x="1230" d="M580 0H205Q207 29 207 78V111V856Q207 1004 160 1057L172 1083L573 1092Q679 1094 775 1063T948 969T1070 805T1116 578Q1116 417 1051 286T862 78T580 0ZM602 98Q724 98 816 208T911 494Q913 635 861
750T712 929T498 989L406 985Q406 978 401 755T395 406Q395 233 401 98H602Z" />
<glyph unicode="e" glyph-name="e" horiz-adv-x="913" d="M209 874Q209 920 205 953T193 1003T178 1034T162 1057L174 1083H440L743 1090Q763 1071 772 1027T779 943T766 895H733Q724 932 672 957T547 985L408 989Q395 776 395 602H662Q686 602 702 608T723 620L727
625L729 611Q731 597 731 586Q731 554 716 533T673 503T623 492T571 489H395Q392 303 399 125Q399 123 403 115H727Q751 115 767 120T788 132L793 137Q797 137 797 98Q797 66 782 45T739 14T689 3T637 0H207L209 111V874Z" />
<glyph unicode="f" glyph-name="f" horiz-adv-x="862" d="M416 0H209L211 111V874Q211 920 207 953T195 1003T180 1034T164 1057L176 1083H444L748 1090Q767 1071 775 1027T782 943T770 895H737Q728 932 676 957T551 985L410 989Q397 722 397 602H664Q688 602
704 608T725 620L729 625L731 611Q733 597 733 586Q733 554 718 533T675 503T625 492T573 489H397Q394 294 401 113Q401 45 416 0Z" />
<glyph unicode="g" glyph-name="g" horiz-adv-x="1200" d="M678 1104H680Q794 1104 894 1064T1026 969Q1026 938 991 881T913 807L885 827Q885 845 872 871T834 926T761 973T657 993Q515 993 421 892T322 600Q322 476 355 376T444 214T565 121T700 88Q736 88 799
100L862 113V233Q862 279 858 312T847 361T832 391T817 414L829 440L869 452Q909 463 950 463Q1004 463 1053 442Q1041 253 1040 184L1042 29L991 20Q736 -27 600 -27Q505 -27 418 10T262 116T154 288T113 516Q113 685 183 818T382 1028T678 1104Z" />
<glyph unicode="h" glyph-name="h" horiz-adv-x="1382" d="M1176 432Q1176 35 1194 0H993Q987 29 987 94Q987 96 987 158T988 318T989 502H406V432Q406 39 424 0H217Q221 106 221 877Q221 923 217 955T206 1004T191 1035T174 1057L186 1083L230 1094Q273 1106
315 1106Q376 1106 422 1085Q408 749 406 598H989Q991 719 991 877Q991 923 987 955T976 1004T961 1035T944 1057L956 1083L998 1094Q1041 1106 1083 1106Q1143 1106 1192 1085Q1176 721 1176 432Z" />
<glyph unicode="i" glyph-name="i" horiz-adv-x="626" d="M420 0H213Q217 106 217 879Q217 925 213 957T201 1006T186 1037T170 1059L182 1085L226 1096Q269 1108 311 1108Q372 1108 418 1087Q401 696 401 432Q401 39 420 0Z" />
<glyph unicode="j" glyph-name="j" horiz-adv-x="647" d="M436 96Q435 -2 396 -81T294 -209T157 -283T8 -309Q-59 -309 -101 -276T-143 -201Q-143 -170 -120 -145T-57 -119Q-48 -119 -18 -123Q-11 -190 74 -190Q174 -190 214 -122T254 102Q254 813 250 879Q250
938 243 976T225 1028T205 1059L217 1085L259 1096Q301 1108 342 1108Q404 1108 453 1087Q434 769 434 432Q434 386 435 262T436 96Z" />
<glyph unicode="k" glyph-name="k" horiz-adv-x="1073" d="M422 0H215Q219 106 219 877Q219 923 215 955T204 1004T189 1035T172 1057L184 1083L228 1094Q271 1106 313 1106Q374 1106 420 1085Q406 735 403 569L772 948Q811 987 811 1024Q811 1040 801 1057L813
1083Q860 1102 934 1102Q1025 1102 1044 1085Q1010 1028 980 992T855 866T578 604Q623 550 755 386T976 113T1075 0H817Q736 120 627 265T444 489L403 537V432Q403 42 422 0Z" />
<glyph unicode="l" glyph-name="l" horiz-adv-x="870" d="M797 0H215Q219 106 219 877Q219 923 215 955T204 1004T189 1035T172 1057L184 1083L228 1094Q271 1106 313 1106Q374 1106 420 1085Q403 694 403 432Q403 193 408 102H600Q677 102 726 126T784 188H819Q838
170 832 98T797 0Z" />
<glyph unicode="m" glyph-name="m" horiz-adv-x="1677" d="M883 -35L784 -20Q690 -3 655 104L373 772Q356 813 342 868Q346 820 346 760Q345 713 342 446T334 86Q334 30 340 0H199L203 27Q237 638 242 993Q218 1034 195 1057L207 1083Q272 1106 340 1106Q428 1106
465 1081Q496 962 636 626T844 160L1196 1024Q1204 1042 1223 1055T1267 1075T1325 1086T1390 1093T1458 1098Q1455 1060 1455 1032T1454 950T1452 829Q1448 559 1462 96Q1467 31 1477 0H1268L1270 98Q1275 345 1264 770Q1264 785 1262 822T1260 868L1223 762L930
104L883 -35Z" />
<glyph unicode="n" glyph-name="n" horiz-adv-x="1406" d="M1057 352Q1061 352 1061 879Q1061 1005 1014 1057L1026 1083Q1055 1104 1122 1104Q1185 1104 1208 1085Q1186 687 1186 313Q1186 156 1194 0H1073L412 717L379 758Q346 800 338 819Q344 792 344 745Q344
706 342 624T340 500Q340 131 358 0H217V27Q219 240 219 610V879Q219 947 210 985T174 1057L186 1083Q211 1093 251 1100T317 1100L1004 354Q1026 330 1048 290L1069 250L1063 290Q1057 330 1057 352Z" />
<glyph unicode="o" glyph-name="o" horiz-adv-x="1249" d="M668 1104Q510 1104 382 1030T180 821T106 520Q106 392 146 286T252 113T398 10T563 -27Q691 -27 800 19T983 144T1099 330T1145 559Q1145 688 1107 793T1002 965T851 1068T668 1104ZM647 84Q554 84 476
153T355 334T311 573Q311 750 394 869T606 989Q696 989 772 925T893 749T938 504Q938 325 856 205T647 84Z" />
<glyph unicode="p" glyph-name="p" horiz-adv-x="1005" d="M406 0H201V27Q201 76 202 220T203 436Q203 481 204 595T205 758T200 881T185 995T156 1057L168 1083L498 1094H518Q574 1094 626 1085T731 1051T822 989T885 892T909 754Q909 605 785 504T483 403Q450
403 389 414Q397 62 406 0ZM502 498Q606 498 672 556T739 717Q739 777 724 825T684 904T626 955T560 982T492 989L395 987Q389 928 389 561V512Q427 498 502 498Z" />
<glyph unicode="q" glyph-name="q" horiz-adv-x="1247" d="M668 1104Q510 1104 382 1030T180 821T106 520Q106 392 146 286T252 113T398 10T563 -27H580Q597 -157 695 -236T918 -315Q1001 -315 1052 -286T1151 -195Q1135 -199 1116 -199Q1023 -199 943 -183T791
-124T690 -14Q893 25 1016 183T1145 559Q1145 688 1107 793T1002 965T851 1068T668 1104ZM647 84Q554 84 476 153T355 334T311 573Q311 750 394 869T606 989Q696 989 772 925T893 749T938 504Q938 325 856 205T647 84Z" />
<glyph unicode="r" glyph-name="r" horiz-adv-x="1095" d="M401 0H197V27Q197 76 198 220T199 436Q199 481 200 595T201 758T196 881T181 995T152 1057L164 1083Q489 1092 514 1092Q571 1092 623 1083T729 1049T822 988T886 891T911 754Q911 645 844 560T666 440Q689
430 870 223T1073 0H821Q806 29 782 63T729 132T667 205T601 277T535 346T473 410Q440 410 385 420Q394 63 401 0ZM498 498Q603 498 672 557T741 717Q741 793 718 849T655 935T574 977T487 989L391 987Q385 928 385 561V512Q423 498 498 498Z" />
<glyph unicode="s" glyph-name="s" horiz-adv-x="835" d="M387 -27Q273 -27 186 23T98 137Q98 177 117 205Q128 169 213 135T381 100Q596 100 596 244Q596 284 569 321T497 388T400 451T293 519T195 595T124 690T96 809Q96 925 187 1014T430 1104Q496 1104 557
1090T644 1063T709 1030Q721 1004 715 936T678 840L643 846Q625 900 581 938T493 990T410 1004Q343 1004 295 973T246 874Q246 831 275 793T351 724T454 663T567 596T671 519T747 419T776 291Q776 160 666 67T387 -27Z" />
<glyph unicode="t" glyph-name="t" horiz-adv-x="958" d="M662 1083H303L59 1094Q33 1068 24 1022T19 940T31 895H63Q70 932 121 956T250 981H379Q387 942 387 858L388 602Q390 346 387 27V0H592Q582 50 582 72Q580 136 580 250T580 486T582 717T585 903T586 981H715Q792
981 843 957T901 895H934Q941 905 945 940T940 1021T905 1094L662 1083Z" />
<glyph unicode="u" glyph-name="u" horiz-adv-x="1271" d="M1098 356Q1098 191 975 82T641 -27Q564 -27 503 -17T386 20T294 87T234 192T209 342Q199 654 199 877Q199 936 192 974T174 1026T154 1057L166 1083L206 1094Q246 1106 289 1106Q353 1106 401 1085Q391
883 391 365Q391 296 409 245T454 166T519 122T589 101T657 96Q786 96 870 155T963 307Q969 307 969 879Q969 1004 924 1057L936 1083Q962 1104 1030 1104Q1093 1104 1116 1085Q1098 694 1098 356Z" />
<glyph unicode="v" glyph-name="v" horiz-adv-x="1122" d="M641 -35L696 104L1040 866Q1102 1005 1104 1083Q1067 1108 1012 1108Q937 1108 893 1085L881 1059Q918 1021 918 967Q918 920 891 858L647 283Q633 248 624 204L614 160Q555 286 428 622T272 1077Q242
1108 162 1108Q83 1108 33 1083L20 1057Q29 1054 44 1038T89 964T150 821L426 104Q437 65 467 28T555 -20L641 -35Z" />
<glyph unicode="w" glyph-name="w" horiz-adv-x="1660" d="M1202 -35L1249 104L1563 866Q1617 994 1628 1083Q1591 1100 1524 1100Q1460 1100 1427 1083L1415 1057Q1452 1020 1452 965Q1452 917 1425 858L1214 283Q1200 248 1189 204L1178 160Q1126 269 1012 606T866
1077Q836 1108 758 1108Q683 1108 633 1083L621 1057Q629 1054 644 1036T691 959T752 815L784 717L625 283Q611 248 600 204L588 160Q536 269 422 606T276 1077Q246 1108 168 1108Q95 1108 43 1083L31 1057Q39 1054 54 1038T99 964T160 821L410 104Q421 65 451
28T539 -20L612 -35L662 104L842 553L999 104Q1032 -2 1128 -20L1202 -35Z" />
<glyph unicode="x" glyph-name="x" horiz-adv-x="954" d="M86 80L397 532L229 815Q208 850 184 891T151 949T128 987T105 1016T85 1034T57 1051L70 1077Q120 1102 190 1102Q279 1102 309 1071Q328 1026 372 944T530 674L563 731L659 864Q670 883 683 902T706 946T717
993Q717 1032 698 1051L711 1077Q749 1102 809 1102Q887 1102 924 1077Q908 995 805 854L590 569L879 96Q893 72 914 48T949 12L963 0H709L461 420L420 348L240 88Q223 60 212 30L201 0H25L86 80Z" />
<glyph unicode="y" glyph-name="y" horiz-adv-x="892" d="M594 0H377V27Q377 94 378 187T379 307Q379 465 377 494Q363 508 340 545L170 819Q101 941 67 991T-8 1057L4 1083Q56 1108 129 1108Q215 1108 246 1077Q284 988 370 835T506 606L515 626Q524 647 537
668L684 907Q706 945 708 983T688 1057L700 1083Q751 1108 801 1108Q858 1108 907 1083Q907 1055 870 978T799 854L582 528Q582 500 581 416T580 283Q580 88 594 0Z" />
<glyph unicode="z" glyph-name="z" horiz-adv-x="1013" d="M27 0L20 33L66 84L641 920L694 975H539H307Q230 975 179 950T121 887H88Q81 897 77 934T82 1019T117 1094L360 1083H958L963 1049L944 1028Q926 1008 920 997L350 172L301 119H494H735Q812 119 863 143T922
205H954Q962 195 966 158T961 74T926 0H682H27Z" />
<glyph unicode="{" glyph-name="braceleft" horiz-adv-x="681" d="M37 623Q190 623 190 1202Q190 1288 220 1357T298 1466T400 1528T506 1550Q578 1550 631 1503Q512 1501 442 1417T371 1184Q371 915 313 753T195 584L208 576Q221 568 240 547T283 475T325 353T358
158T371 -117Q371 -157 372 -184T377 -246T390 -305T414 -353T451 -392T505 -416T580 -426Q593 -426 631 -422Q563 -502 457 -502Q352 -502 271 -423T190 -211Q190 21 178 181T142 422T95 537T37 578V623Z" />
<glyph unicode="|" glyph-name="bar" horiz-adv-x="163" d="M164 1548V-520H0V1548H164Z" />
<glyph unicode="}" glyph-name="braceright" horiz-adv-x="681" d="M645 623Q492 623 492 1202Q492 1288 462 1357T384 1466T282 1528T176 1550Q104 1550 51 1503Q170 1501 240 1417T311 1184Q311 915 369 753T487 584L474 576Q461 568 442 547T399 475T357 353T324
158T311 -117Q311 -157 310 -184T305 -246T292 -305T268 -353T231 -392T177 -416T102 -426Q89 -426 51 -422Q119 -502 225 -502Q330 -502 411 -423T492 -211Q492 21 504 181T540 422T587 537T645 578V623Z" />
<glyph unicode="~" glyph-name="asciitilde" horiz-adv-x="1079" d="M184 535Q209 553 221 560T260 578T313 586Q347 584 438 552T598 516Q697 510 774 551T870 680Q789 621 719 625Q683 629 589 659T442 692Q347 699 274 660T184 535Z" />
<glyph unicode="&#xa0;" glyph-name="uni00A0" horiz-adv-x="460" />
<glyph unicode="&#xdf;" glyph-name="germandbls" horiz-adv-x="1671" d="M387 -27Q273 -27 186 23T98 137Q98 177 117 205Q128 169 213 135T381 100Q596 100 596 244Q596 284 569 321T497 388T400 451T293 519T195 595T124 690T96 809Q96 925 187 1014T430 1104Q496
1104 557 1090T644 1063T709 1030Q721 1004 715 936T678 840L643 846Q625 900 581 938T493 990T410 1004Q343 1004 295 973T246 874Q246 831 275 793T351 724T454 663T567 596T671 519T747 419T776 291Q776 160 666 67T387 -27ZM1223 -27Q1109 -27 1022 23T934
137Q934 176 952 205Q963 169 1048 135T1217 100Q1432 100 1432 244Q1432 284 1405 321T1333 388T1236 451T1129 519T1031 595T960 690T932 809Q932 925 1023 1014T1266 1104Q1332 1104 1393 1090T1480 1063T1544 1030Q1551 1008 1552 973T1544 899T1513 840L1479
846Q1461 900 1417 938T1329 990T1245 1004Q1178 1004 1130 973T1081 874Q1081 831 1110 793T1186 724T1289 663T1403 596T1506 519T1582 419T1612 291Q1612 160 1502 67T1223 -27Z" />
<glyph unicode="&#xe0;" glyph-name="agrave" horiz-adv-x="1067" d="M643 1116Q654 1069 686 977L997 131Q1021 56 1059 0H834Q824 48 821 55L705 371H291L158 20Q156 16 155 9T152 0H8L410 977Q423 1015 444 1041T495 1080T546 1099T601 1109T643 1116ZM672
461L500 922L322 461H672ZM342 1524H219L299 1384Q406 1198 575 1198Q598 1198 624 1211T651 1231Q599 1247 560 1283T499 1360T457 1437T408 1499T342 1524Z" />
<glyph unicode="&#xe1;" glyph-name="aacute" horiz-adv-x="1067" d="M746 1524H868L789 1384Q680 1198 512 1198Q489 1198 463 1211T436 1231Q488 1247 527 1283T589 1360L632 1438Q652 1475 680 1499T746 1524ZM643 1116Q654 1069 686 977L997 131Q1021 56 1059
0H834Q824 48 821 55L705 371H291L158 20Q156 16 155 9T152 0H8L410 977Q423 1015 444 1041T495 1080T546 1099T601 1109T643 1116ZM672 461L500 922L322 461H672Z" />
<glyph unicode="&#xe2;" glyph-name="acircumflex" horiz-adv-x="1067" d="M541 1524H557Q586 1524 624 1482T694 1387T770 1288T854 1231Q854 1225 828 1212T778 1198Q737 1198 708 1204T656 1228T617 1264T576 1319Q559 1341 546 1386L533 1432L519 1386Q504
1341 488 1319Q449 1259 406 1229T287 1198Q264 1198 238 1211T211 1231Q244 1238 280 1271T346 1346L406 1428Q435 1469 461 1496T508 1524H541ZM643 1116Q654 1069 686 977L997 131Q1021 56 1059 0H834Q824 48 821 55L705 371H291L158 20Q156 16 155 9T152 0H8L410
977Q423 1015 444 1041T495 1080T546 1099T601 1109T643 1116ZM672 461L500 922L322 461H672Z" />
<glyph unicode="&#xe3;" glyph-name="atilde" horiz-adv-x="1067" d="M194 1282Q205 1341 245 1379T338 1430Q390 1444 452 1440Q505 1437 598 1406Q693 1376 729 1372Q794 1368 880 1427Q861 1340 784 1299T608 1264Q540 1268 449 1299T323 1333Q268 1337 194
1282ZM643 1116Q654 1069 686 977L997 131Q1021 56 1059 0H834Q824 48 821 55L705 371H291L158 20Q156 16 155 9T152 0H8L410 977Q423 1015 444 1041T495 1080T546 1099T601 1109T643 1116ZM672 461L500 922L322 461H672Z" />
<glyph unicode="&#xe4;" glyph-name="adieresis" horiz-adv-x="1067" d="M823 1313Q823 1266 793 1233T721 1200T649 1232T618 1313Q618 1359 648 1392T721 1425Q762 1425 792 1392T823 1313ZM446 1313Q446 1266 416 1233T344 1200T272 1233T241 1313Q241 1359
272 1392T344 1425T415 1392T446 1313ZM643 1116Q654 1069 686 977L997 131Q1021 56 1059 0H834Q824 48 821 55L705 371H291L158 20Q156 16 155 9T152 0H8L410 977Q423 1015 444 1041T495 1080T546 1099T601 1109T643 1116ZM672 461L500 922L322 461H672Z" />
<glyph unicode="&#xe5;" glyph-name="aring" horiz-adv-x="1067" d="M546 1235Q582 1235 610 1262T638 1343Q638 1407 609 1441T536 1475Q499 1475 473 1450T446 1370Q446 1306 475 1271T546 1235ZM563 1532Q628 1532 675 1486T722 1364Q722 1284 664 1231T520
1178Q457 1178 411 1223T364 1348Q364 1429 421 1480T563 1532ZM643 1116Q654 1069 686 977L997 131Q1021 56 1059 0H834Q824 48 821 55L705 371H291L158 20Q156 16 155 9T152 0H8L410 977Q423 1015 444 1041T495 1080T546 1099T601 1109T643 1116ZM672 461L500
922L322 461H672Z" />
<glyph unicode="&#xe6;" glyph-name="ae" horiz-adv-x="1396" d="M549 1081L940 1083L1243 1090Q1263 1071 1272 1027T1279 943T1266 895H1233Q1224 932 1172 957T1047 985L918 989Q893 989 881 987Q882 966 877 801T870 573H1139Q1163 573 1180 578T1202 590L1206
596Q1208 596 1208 563Q1208 536 1200 517T1171 487T1132 470T1077 462T1015 460T944 461T870 463V356Q870 283 874 123Q874 117 877 113H1206Q1230 113 1246 118T1266 130L1270 135Q1274 135 1274 102Q1274 0 1114 0H684V78V367H348L166 33Q162 27 159 14T156
0H8L549 963Q561 999 559 1015T539 1053L549 1081ZM686 1008L651 922L395 455H684V872Q684 973 686 1008Z" />
<glyph unicode="&#xe7;" glyph-name="ccedilla" horiz-adv-x="1107" d="M1004 258Q1022 220 1022 178Q1022 121 973 77T843 9T666 -20Q655 -48 655 -72Q655 -88 675 -98T726 -117T785 -139T835 -180T856 -252Q856 -346 788 -413T623 -481Q550 -481 507 -453T463
-377Q463 -353 471 -332Q516 -375 616 -375Q665 -375 698 -354T731 -297Q731 -271 703 -252T640 -223T578 -188T549 -127Q549 -62 612 -23Q374 -16 244 131T113 516Q113 772 272 935T686 1098Q766 1098 842 1079T972 1019T1026 926Q1026 900 1000 874T932 848Q902
848 866 864Q864 882 856 900T830 940T771 975T676 989Q591 989 523 956T413 867T348 739T326 586Q326 500 348 416T414 259T531 141T698 96Q736 96 777 104T863 131T945 182T1004 258Z" />
<glyph unicode="&#xe8;" glyph-name="egrave" horiz-adv-x="913" d="M209 874Q209 920 205 953T193 1003T178 1034T162 1057L174 1083H440L743 1090Q763 1071 772 1027T779 943T766 895H733Q724 932 672 957T547 985L408 989Q395 776 395 602H662Q686 602 702
608T723 620L727 625L729 611Q731 597 731 586Q731 554 716 533T673 503T623 492T571 489H395Q392 303 399 125Q399 123 403 115H727Q751 115 767 120T788 132L793 137Q797 137 797 98Q797 66 782 45T739 14T689 3T637 0H207L209 111V874ZM320 1524H197L277 1384Q384
1198 553 1198Q576 1198 602 1211T629 1231Q577 1247 538 1283T477 1360T435 1437T386 1499T320 1524Z" />
<glyph unicode="&#xe9;" glyph-name="eacute" horiz-adv-x="913" d="M666 1524H788L709 1384Q600 1198 432 1198Q409 1198 383 1211T356 1231Q408 1247 447 1283T509 1360T551 1437T600 1499T666 1524ZM209 874Q209 920 205 953T193 1003T178 1034T162 1057L174
1083H440L743 1090Q763 1071 772 1027T779 943T766 895H733Q724 932 672 957T547 985L408 989Q395 776 395 602H662Q686 602 702 608T723 620L727 625L729 611Q731 597 731 586Q731 554 716 533T673 503T623 492T571 489H395Q392 303 399 125Q399 123 403 115H727Q751
115 767 120T788 132L793 137Q797 137 797 98Q797 66 782 45T739 14T689 3T637 0H207L209 111V874Z" />
<glyph unicode="&#xea;" glyph-name="ecircumflex" horiz-adv-x="913" d="M500 1524H516Q545 1524 583 1482T653 1387T729 1288T813 1231Q813 1225 787 1212T737 1198Q696 1198 667 1204T615 1228T576 1264T535 1319Q518 1341 505 1386L492 1432L478 1386Q463
1341 447 1319Q408 1259 365 1229T246 1198Q223 1198 197 1211T170 1231Q203 1238 239 1271T306 1346L365 1428Q394 1469 420 1496T467 1524H500ZM209 874Q209 920 205 953T193 1003T178 1034T162 1057L174 1083H440L743 1090Q763 1071 772 1027T779 943T766 895H733Q724
932 672 957T547 985L408 989Q395 776 395 602H662Q686 602 702 608T723 620L727 625L729 611Q731 597 731 586Q731 554 716 533T673 503T623 492T571 489H395Q392 303 399 125Q399 123 403 115H727Q751 115 767 120T788 132L793 137Q797 137 797 98Q797 66 782
45T739 14T689 3T637 0H207L209 111V874Z" />
<glyph unicode="&#xeb;" glyph-name="edieresis" horiz-adv-x="913" d="M768 1313Q768 1266 738 1233T666 1200T594 1232T563 1313Q563 1359 593 1392T666 1425Q707 1425 737 1392T768 1313ZM391 1313Q391 1266 361 1233T289 1200T217 1233T186 1313Q186 1359
217 1392T289 1425T360 1392T391 1313ZM209 874Q209 920 205 953T193 1003T178 1034T162 1057L174 1083H440L743 1090Q763 1071 772 1027T779 943T766 895H733Q724 932 672 957T547 985L408 989Q395 776 395 602H662Q686 602 702 608T723 620L727 625L729 611Q731
597 731 586Q731 554 716 533T673 503T623 492T571 489H395Q392 303 399 125Q399 123 403 115H727Q751 115 767 120T788 132L793 137Q797 137 797 98Q797 66 782 45T739 14T689 3T637 0H207L209 111V874Z" />
<glyph unicode="&#xec;" glyph-name="igrave" horiz-adv-x="626" d="M422 0H219V27Q222 346 220 610L219 874Q219 946 197 985T133 1030V1061L151 1072Q169 1082 207 1093T287 1104Q348 1104 378 1073T414 980T414 825Q394 560 414 72Q414 55 418 28T422 0ZM92
1524H-31L49 1384Q156 1198 325 1198Q348 1198 374 1211T401 1231Q349 1247 310 1283T249 1360T207 1437T158 1499T92 1524Z" />
<glyph unicode="&#xed;" glyph-name="iacute" horiz-adv-x="626" d="M451 1524H573L494 1384Q385 1198 217 1198Q194 1198 168 1211T141 1231Q193 1247 232 1283T294 1360T336 1437T385 1499T451 1524ZM422 0H219V27Q222 346 220 610L219 874Q219 946 197 985T133
1030V1061L151 1072Q169 1082 207 1093T287 1104Q348 1104 378 1073T414 980T414 825Q394 560 414 72Q414 55 418 28T422 0Z" />
<glyph unicode="&#xee;" glyph-name="icircumflex" horiz-adv-x="626" d="M301 1524H317Q346 1524 384 1482T454 1387T530 1288T614 1231Q614 1225 588 1212T538 1198Q497 1198 468 1204T416 1228T377 1264T336 1319Q319 1341 306 1386L293 1432L279 1386Q264
1341 248 1319Q209 1259 166 1229T47 1198Q24 1198 -2 1211T-29 1231Q4 1238 40 1271T106 1346L166 1428Q195 1469 221 1496T268 1524H301ZM422 0H219V27Q222 346 220 610L219 874Q219 946 197 985T133 1030V1061L151 1072Q169 1082 207 1093T287 1104Q348 1104
378 1073T414 980T414 825Q394 560 414 72Q414 55 418 28T422 0Z" />
<glyph unicode="&#xef;" glyph-name="idieresis" horiz-adv-x="626" d="M579 1313Q579 1266 549 1233T477 1200T405 1232T374 1313Q374 1359 404 1392T477 1425Q518 1425 548 1392T579 1313ZM202 1313Q202 1266 172 1233T100 1200T28 1233T-3 1313Q-3 1359 28
1392T100 1425T171 1392T202 1313ZM422 0H219V27Q222 346 220 610L219 874Q219 946 197 985T133 1030V1061L151 1072Q169 1082 207 1093T287 1104Q348 1104 378 1073T414 980T414 825Q394 560 414 72Q414 55 418 28T422 0Z" />
<glyph unicode="&#xf1;" glyph-name="ntilde" horiz-adv-x="1406" d="M344 1282Q355 1341 395 1379T488 1430Q540 1444 602 1440Q655 1437 748 1406Q843 1376 879 1372Q944 1368 1030 1427Q1011 1340 934 1299T758 1264Q690 1268 599 1299T473 1333Q418 1337 344
1282ZM1057 352Q1061 352 1061 879Q1061 1005 1014 1057L1026 1083Q1055 1104 1122 1104Q1185 1104 1208 1085Q1186 687 1186 313Q1186 156 1194 0H1073L412 717L379 758Q346 800 338 819Q344 792 344 745Q344 706 342 624T340 500Q340 131 358 0H217V27Q219 240
219 610V879Q219 947 210 985T174 1057L186 1083Q211 1093 251 1100T317 1100L1004 354Q1026 330 1048 290L1069 250L1063 290Q1057 330 1057 352Z" />
<glyph unicode="&#xf2;" glyph-name="ograve" horiz-adv-x="1249" d="M668 1104Q510 1104 382 1030T180 821T106 520Q106 392 146 286T252 113T398 10T563 -27Q691 -27 800 19T983 144T1099 330T1145 559Q1145 688 1107 793T1002 965T851 1068T668 1104ZM647 84Q554
84 476 153T355 334T311 573Q311 750 394 869T606 989Q696 989 772 925T893 749T938 504Q938 325 856 205T647 84ZM449 1524H326L406 1384Q513 1198 682 1198Q705 1198 731 1211T758 1231Q706 1247 667 1283T606 1360T564 1437T515 1499T449 1524Z" />
<glyph unicode="&#xf3;" glyph-name="oacute" horiz-adv-x="1249" d="M775 1524H897L818 1384Q709 1198 541 1198Q518 1198 492 1211T465 1231Q517 1247 556 1283T618 1360L660 1438Q681 1475 709 1499T775 1524ZM668 1104Q510 1104 382 1030T180 821T106 520Q106
392 146 286T252 113T398 10T563 -27Q691 -27 800 19T983 144T1099 330T1145 559Q1145 688 1107 793T1002 965T851 1068T668 1104ZM647 84Q554 84 476 153T355 334T311 573Q311 750 394 869T606 989Q696 989 772 925T893 749T938 504Q938 325 856 205T647 84Z"
/>
<glyph unicode="&#xf4;" glyph-name="ocircumflex" horiz-adv-x="1249" d="M635 1524H651Q680 1524 718 1482T788 1387T864 1288T948 1231Q948 1225 922 1212T872 1198Q831 1198 802 1204T750 1228T711 1264T670 1319Q653 1341 640 1386L627 1432L613 1386Q598
1341 582 1319Q543 1259 500 1229T381 1198Q358 1198 332 1211T305 1231Q338 1238 374 1271T440 1346L500 1428Q529 1469 555 1496T602 1524H635ZM668 1104Q510 1104 382 1030T180 821T106 520Q106 392 146 286T252 113T398 10T563 -27Q691 -27 800 19T983 144T1099
330T1145 559Q1145 688 1107 793T1002 965T851 1068T668 1104ZM647 84Q554 84 476 153T355 334T311 573Q311 750 394 869T606 989Q696 989 772 925T893 749T938 504Q938 325 856 205T647 84Z" />
<glyph unicode="&#xf5;" glyph-name="otilde" horiz-adv-x="1249" d="M278 1282Q289 1341 329 1379T422 1430Q474 1444 536 1440Q589 1437 682 1406Q777 1376 813 1372Q878 1368 964 1427Q945 1340 868 1299T692 1264Q624 1268 533 1299T407 1333Q352 1337 278
1282ZM668 1104Q510 1104 382 1030T180 821T106 520Q106 392 146 286T252 113T398 10T563 -27Q691 -27 800 19T983 144T1099 330T1145 559Q1145 688 1107 793T1002 965T851 1068T668 1104ZM647 84Q554 84 476 153T355 334T311 573Q311 750 394 869T606 989Q696
989 772 925T893 749T938 504Q938 325 856 205T647 84Z" />
<glyph unicode="&#xf6;" glyph-name="odieresis" horiz-adv-x="1249" d="M899 1313Q899 1266 869 1233T797 1200T725 1232T694 1313Q694 1359 724 1392T797 1425Q838 1425 868 1392T899 1313ZM522 1313Q522 1266 492 1233T420 1200T348 1233T317 1313Q317 1359
348 1392T420 1425T491 1392T522 1313ZM668 1104Q510 1104 382 1030T180 821T106 520Q106 392 146 286T252 113T398 10T563 -27Q691 -27 800 19T983 144T1099 330T1145 559Q1145 688 1107 793T1002 965T851 1068T668 1104ZM647 84Q554 84 476 153T355 334T311 573Q311
750 394 869T606 989Q696 989 772 925T893 749T938 504Q938 325 856 205T647 84Z" />
<glyph unicode="&#xf8;" glyph-name="oslash" horiz-adv-x="1249" d="M117 2L221 115L229 123Q353 -25 551 -25Q723 -25 856 53T1060 263T1137 559Q1137 790 1030 928Q1039 937 1063 959T1095 991T1113 1017T1121 1046T1104 1073Q1094 1083 1057 1106Q1028 1073
967 997Q851 1098 680 1098Q428 1098 271 937T113 520Q113 333 178 203L47 74L117 2ZM635 76Q554 76 488 127T377 270L885 784Q944 658 944 504Q944 323 850 200T635 76ZM602 995Q740 995 838 862L340 362Q311 472 311 584Q311 760 395 877T602 995Z" />
<glyph unicode="&#xf9;" glyph-name="ugrave" horiz-adv-x="1263" d="M1116 356Q1116 191 993 82T659 -27Q583 -27 522 -17T405 20T313 87T253 192T227 342Q217 654 217 877Q217 936 210 974T192 1026T172 1057L184 1083L224 1094Q265 1106 307 1106Q371 1106
420 1085Q410 883 410 365Q410 296 428 245T472 166T537 122T607 101T676 96Q805 96 889 155T981 307Q987 307 987 879Q987 1006 942 1057L954 1083Q981 1104 1049 1104Q1110 1104 1135 1085Q1116 710 1116 356ZM500 1524H377L457 1384Q564 1198 733 1198Q756 1198
782 1211T809 1231Q765 1245 730 1273T674 1333T634 1399T599 1461T558 1506T500 1524Z" />
<glyph unicode="&#xfa;" glyph-name="uacute" horiz-adv-x="1263" d="M1116 356Q1116 191 993 82T659 -27Q583 -27 522 -17T405 20T313 87T253 192T227 342Q217 654 217 877Q217 936 210 974T192 1026T172 1057L184 1083L224 1094Q265 1106 307 1106Q371 1106
420 1085Q410 883 410 365Q410 296 428 245T472 166T537 122T607 101T676 96Q805 96 889 155T981 307Q987 307 987 879Q987 1006 942 1057L954 1083Q981 1104 1049 1104Q1110 1104 1135 1085Q1116 710 1116 356ZM817 1524H940L860 1384Q753 1198 584 1198Q561 1198
535 1211T508 1231Q560 1247 599 1283T660 1360T702 1437T751 1499T817 1524Z" />
<glyph unicode="&#xfb;" glyph-name="ucircumflex" horiz-adv-x="1263" d="M1116 356Q1116 191 993 82T659 -27Q583 -27 522 -17T405 20T313 87T253 192T227 342Q217 654 217 877Q217 936 210 974T192 1026T172 1057L184 1083L224 1094Q265 1106 307 1106Q371
1106 420 1085Q410 883 410 365Q410 296 428 245T472 166T537 122T607 101T676 96Q805 96 889 155T981 307Q987 307 987 879Q987 1006 942 1057L954 1083Q981 1104 1049 1104Q1110 1104 1135 1085Q1116 710 1116 356ZM651 1524H668Q697 1524 735 1482T805 1387T881
1288T965 1231Q965 1225 939 1212T889 1198Q847 1198 818 1204T766 1228T727 1264T686 1319Q669 1341 656 1386L643 1432L629 1386Q615 1341 598 1319Q559 1259 517 1229T397 1198Q374 1198 348 1211T322 1231Q355 1238 391 1271T457 1345T516 1428T572 1496T618
1524H651Z" />
<glyph unicode="&#xfc;" glyph-name="udieresis" horiz-adv-x="1263" d="M1116 356Q1116 191 993 82T659 -27Q583 -27 522 -17T405 20T313 87T253 192T227 342Q217 654 217 877Q217 936 210 974T192 1026T172 1057L184 1083L224 1094Q265 1106 307 1106Q371 1106
420 1085Q410 883 410 365Q410 296 428 245T472 166T537 122T607 101T676 96Q805 96 889 155T981 307Q987 307 987 879Q987 1006 942 1057L954 1083Q981 1104 1049 1104Q1110 1104 1135 1085Q1116 710 1116 356ZM580 1313Q580 1266 550 1233T477 1200T405 1233T375
1313Q375 1359 405 1392T477 1425T549 1392T580 1313ZM956 1313Q956 1266 926 1233T854 1200T782 1233T752 1313Q752 1359 782 1392T854 1425T925 1392T956 1313Z" />
<glyph unicode="&#xff;" glyph-name="ydieresis" horiz-adv-x="892" d="M760 1313Q760 1266 730 1233T658 1200T586 1232T555 1313Q555 1359 585 1392T658 1425Q699 1425 729 1392T760 1313ZM383 1313Q383 1266 353 1233T281 1200T209 1233T178 1313Q178 1359
209 1392T281 1425T352 1392T383 1313ZM594 0H377V27Q377 94 378 187T379 307Q379 465 377 494Q363 508 340 545L170 819Q101 941 67 991T-8 1057L4 1083Q56 1108 129 1108Q215 1108 246 1077Q284 988 370 835T506 606L515 626Q524 647 537 668L684 907Q706 945
708 983T688 1057L700 1083Q751 1108 801 1108Q858 1108 907 1083Q907 1055 870 978T799 854L582 528Q582 500 581 416T580 283Q580 88 594 0Z" />
<glyph unicode="&#x131;" glyph-name="dotlessi" horiz-adv-x="626" d="M422 0H219V27Q222 346 220 610L219 874Q219 946 197 985T133 1030V1061L151 1072Q169 1082 207 1093T287 1104Q348 1104 378 1073T414 980T414 825Q394 560 414 72Q414 55 418 28T422 0Z" />
<glyph unicode="&#x153;" glyph-name="oe" horiz-adv-x="1536" d="M645 1085H1079L1382 1092Q1402 1073 1411 1029T1418 945T1405 897H1372Q1363 934 1311 959T1186 987L1047 991Q1022 991 1010 989L1008 813Q1005 692 999 606H1280Q1303 606 1318 612T1338 624L1343
629L1346 618Q1348 607 1348 596Q1348 496 1188 496Q1047 496 999 494Q996 277 1006 123V113H1343Q1368 113 1384 118T1405 130L1409 135Q1411 135 1411 102Q1411 0 1253 0H651Q544 0 448 33T274 128T152 293T109 522Q114 683 178 809T364 1010T645 1085ZM733 96H823V121V866Q823
940 811 981H635Q508 981 411 874T311 592Q307 377 426 237T733 96Z" />
<glyph unicode="&#x192;" glyph-name="florin" horiz-adv-x="989" d="M465 1126Q436 1013 336 1004L315 942L324 939Q333 936 346 928T372 905T394 865T403 805Q363 -145 138 -343Q83 -391 18 -391Q-36 -391 -68 -369T-100 -311Q-100 -303 -96 -287Q-101 -287
-110 -286T-123 -285Q-181 -285 -214 -311T-248 -377Q-248 -438 -182 -476T-29 -514Q48 -514 114 -495T231 -443T323 -360T396 -255T451 -129T492 9T524 158Q571 419 590 887Q597 887 655 886T729 885Q763 885 789 890T844 909T887 954T903 1032L898 1026Q894 1020
876 1014T829 1008H604Q610 1020 614 1055L637 1217Q663 1419 813 1419Q853 1419 876 1395T901 1335Q924 1325 946 1325Q989 1325 1024 1356T1059 1430Q1059 1481 1003 1513T877 1546Q834 1546 791 1535T698 1493T607 1417T527 1296T465 1126Z" />
</font>
</defs>
</svg>
