<?xml version="1.0" standalone="no"?> <!DOCTYPE svg PUBLIC "-//W3C//DTD SVG 1.0//EN" "http://www.w3.org/TR/2001/REC-SVG-20010904/DTD/svg10.dtd" > <svg xmlns="http://www.w3.org/2000/svg" width="100%" height="100%">
<defs >
<font id="Fontin-Bold" horiz-adv-x="950" ><font-face
    font-family="Fontin"
    units-per-em="2048"
    panose-1="2 0 8 3 0 0 0 0 0 0"
    ascent="1610"
    descent="-549"
    alphabetic="0" />
<missing-glyph horiz-adv-x="748" d="M68 0V1365H612V0H68ZM136 68H544V1297H136V68Z" />
<glyph unicode=" " glyph-name="space" horiz-adv-x="614" />
<glyph unicode="!" glyph-name="exclam" horiz-adv-x="595" d="M356 354H256L162 1321Q158 1372 146 1409T124 1457L113 1468V1507L138 1522Q163 1537 206 1552T285 1567Q397 1567 440 1531T483 1421Q483 1365 463 1249Q431 1063 394 708L356 354ZM156 111Q156
170 198 212T299 254Q355 254 395 212T436 111Q436 54 396 14T299 -27Q240 -27 198 13T156 111Z" />
<glyph unicode="&quot;" glyph-name="quotedbl" horiz-adv-x="786" d="M225 1554H373L350 1389Q320 1179 164 1118Q139 1109 93 1111T41 1118Q81 1154 104 1213T136 1328T152 1437T176 1522T225 1554ZM553 1554H700L678 1389Q647 1179 492 1118Q467 1109 421 1111T369
1118Q409 1154 432 1213T464 1328T479 1437T504 1522T553 1554Z" />
<glyph unicode="#" glyph-name="numbersign" horiz-adv-x="1441" d="M418 770H276Q134 769 113 764L129 928Q156 923 241 922T432 920Q449 1111 449 1210Q449 1248 441 1290T432 1346Q494 1391 537 1391Q565 1391 582 1380T607 1342T616 1295T618 1233Q618 1203
588 920H829Q846 1097 846 1210Q846 1248 838 1290T829 1346Q890 1391 934 1391Q957 1391 973 1382T997 1361T1010 1324T1015 1283T1016 1233Q1016 1213 985 920H1106Q1195 920 1226 920T1303 927T1372 948Q1363 892 1340 854T1285 800T1214 775T1133 767T1049
768H967Q965 746 955 662T940 532H1069Q1100 532 1129 532T1183 532T1231 535T1273 540T1308 548T1335 561Q1326 505 1303 467T1248 413T1177 388T1096 380T1012 381H926Q905 186 897 4L723 -35Q737 36 746 104T764 265T776 381H528Q508 179 500 4L330 -33Q339
62 356 195T379 383Q109 383 76 377L92 541Q111 537 148 536T267 534T395 532Q400 608 418 770ZM571 768Q555 616 545 532H791Q796 577 803 656T815 768H571Z" />
<glyph unicode="$" glyph-name="dollar" horiz-adv-x="937" d="M371 -217L385 -23Q254 -10 167 54T80 201Q80 251 113 295Q123 254 172 219T281 165T399 139L432 555Q383 587 359 604T289 656T220 714T163 776T114 848T85 926T72 1016Q72 1085 98 1150T175 1268T305
1355T485 1389V1532Q532 1542 563 1542Q577 1542 586 1538T601 1525T608 1505T611 1479T609 1449T607 1415T604 1380Q727 1361 795 1303T864 1171Q864 1135 848 1085Q845 1131 767 1170T588 1223Q584 1167 555 842Q603 812 630 795T701 745T771 687T829 624T878
551T908 469T920 373Q920 218 804 106T502 -23L492 -217H371ZM309 1096Q309 1044 346 999T455 905L475 1227Q401 1221 355 1189T309 1096ZM666 313Q666 358 632 399T532 489Q529 448 512 145Q580 159 623 200T666 313Z" />
<glyph unicode="%" glyph-name="percent" horiz-adv-x="1787" d="M1346 682Q1485 682 1575 593T1665 344Q1662 188 1552 83T1268 -23Q1133 -23 1045 64T956 317Q956 479 1064 580T1346 682ZM481 1399Q620 1399 710 1310T801 1061Q798 905 688 800T403 694Q268
694 180 781T92 1034Q92 1196 200 1297T481 1399ZM485 0H305Q839 761 1022 1032T1210 1352Q1254 1397 1319 1397Q1351 1397 1373 1383T1395 1341Q1395 1302 1366 1254T1277 1134T1194 1028L485 0ZM1317 80Q1373 80 1411 142T1450 307Q1450 432 1409 505T1296 578Q1241
578 1209 520T1176 360Q1176 233 1213 157T1317 80ZM453 797Q508 797 547 859T586 1024Q586 1148 545 1221T432 1294Q376 1294 344 1236T311 1077Q311 949 348 873T453 797Z" />
<glyph unicode="&amp;" glyph-name="ampersand" horiz-adv-x="1554" d="M766 1245Q766 1090 563 952Q434 1174 434 1296Q434 1365 475 1401T586 1438Q669 1438 717 1383T766 1245ZM825 195Q758 139 653 139Q510 139 413 250T315 508Q315 624 399 707Q596 405 825
195ZM1063 1008L1034 967Q1057 868 1057 758Q1057 547 983 403Q776 617 621 858Q647 874 672 891T742 943T823 1015T896 1098T952 1196T973 1300Q973 1414 878 1490T629 1567Q437 1567 319 1467T201 1210Q201 1052 342 797Q223 705 157 591T90 356Q90 191 210 82T526
-27Q626 -27 739 10T928 113Q1020 48 1117 13T1300 -23Q1420 -23 1483 31T1546 168Q1476 131 1434 131Q1358 131 1280 169T1083 307Q1203 538 1223 872Q1275 868 1296 868Q1470 868 1470 995Q1470 1024 1466 1040Q1430 1008 1335 1008H1063Z" />
<glyph unicode="&apos;" glyph-name="quotesingle" horiz-adv-x="425" d="M225 1554H373L350 1389Q320 1179 164 1118Q139 1109 93 1111T41 1118Q81 1154 104 1213T136 1328T152 1437T176 1522T225 1554Z" />
<glyph unicode="(" glyph-name="parenleft" horiz-adv-x="688" d="M100 485Q100 304 148 121T274 -203T453 -431T657 -520L634 -488Q612 -456 579 -400T506 -252T433 -55T377 194T354 485Q354 627 376 759T430 984T501 1156T572 1282T627 1354L649 1380Q531 1380
428 1305T253 1104T141 818T100 485Z" />
<glyph unicode=")" glyph-name="parenright" horiz-adv-x="694" d="M612 485Q612 243 532 9T321 -372T55 -520L78 -488Q100 -456 133 -400T206 -252T279 -55T335 194T358 485Q358 627 336 759T282 984T211 1156T140 1282T85 1354L63 1380Q220 1380 347 1251T543
918T612 485Z" />
<glyph unicode="*" glyph-name="asterisk" horiz-adv-x="884" d="M426 1032L424 1034Q297 813 297 776Q225 837 225 926Q225 1003 268 1077L289 1112Q252 1114 186 1114Q36 1114 12 1096Q43 1268 295 1268H299Q255 1359 210 1427T145 1503Q186 1516 213 1516Q337
1516 432 1348L436 1354Q561 1551 561 1604Q561 1605 560 1607T559 1610Q631 1552 631 1462Q631 1379 571 1278L559 1260Q640 1260 703 1260T810 1263T866 1276Q852 1187 784 1146T621 1104H563Q591 1054 616 1011T662 934T699 879T727 852Q690 840 655 840Q594
840 543 878T455 981L426 1032Z" />
<glyph unicode="+" glyph-name="plus" horiz-adv-x="964" d="M461 913Q491 913 510 905T539 877T550 839T553 788V743Q553 736 552 692T551 594H618Q664 593 706 593T781 596T841 604T885 623Q876 566 852 529T797 475T726 449T645 441T561 442H549Q547 346 547
176Q547 150 553 125H389Q397 149 397 442Q356 442 284 443T190 444Q136 444 98 438V602Q150 594 397 594V645Q397 676 397 704T397 756T395 803T391 842T384 874T373 897Q425 913 461 913Z" />
<glyph unicode="," glyph-name="comma" horiz-adv-x="456" d="M106 -291L55 -225Q122 -162 153 -100T184 14Q184 42 179 60T162 86T145 96T129 100Q121 149 161 201T264 254Q325 254 367 213T410 96Q410 16 332 -90T106 -291Z" />
<glyph unicode="-" glyph-name="hyphen" horiz-adv-x="632" d="M39 422V584Q39 575 301 575Q394 575 437 575T526 581T586 596Q583 564 576 539T554 495T525 464T486 443T443 430T392 423T340 421T283 420Q256 420 174 422T78 424Q47 424 39 422Z" />
<glyph unicode="." glyph-name="period" horiz-adv-x="528" d="M127 111Q127 170 169 212T270 254Q326 254 367 212T408 111Q408 54 367 14T270 -27Q212 -27 170 13T127 111Z" />
<glyph unicode="/" glyph-name="slash" horiz-adv-x="618" d="M141 -500H-59Q119 209 225 716T332 1335V1348Q345 1369 381 1390T467 1411Q555 1411 555 1337Q555 1291 532 1214Q473 993 329 358T141 -500Z" />
<glyph unicode="0" glyph-name="zero" horiz-adv-x="1226" d="M870 547Q870 356 798 229T629 98Q550 99 488 172T390 373T352 662Q354 832 419 954T580 1077Q705 1077 787 929T870 547ZM92 578Q92 422 130 303T235 112T385 6T565 -29Q741 -29 872 60T1069 296T1135
625Q1135 774 1098 890T996 1078T844 1188T655 1225Q485 1225 356 1141T160 910T92 578Z" />
<glyph unicode="1" glyph-name="one" horiz-adv-x="710" d="M547 0H270L272 80L281 864Q284 944 260 981L78 924L31 1055L426 1229H469L530 1126L527 1062Q524 997 524 975L528 164Q528 86 547 0Z" />
<glyph unicode="2" glyph-name="two" d="M72 96L104 129Q138 165 178 203T264 292T352 394T434 507T502 630T549 763T567 903Q567 942 560 975T537 1038T492 1085T422 1102Q359 1102 319 1065T289 969Q253 928 199 928Q152 928 119 955T86 1032Q86 1120 192 1172T446
1225Q553 1225 634 1199T760 1129T826 1033T848 924Q848 841 808 747T708 572T578 416T447 287T347 202L307 170H684Q773 170 814 178T879 215Q889 178 889 141Q889 5 707 0H72V96Z" />
<glyph unicode="3" glyph-name="three" horiz-adv-x="958" d="M193 -170Q151 -170 119 -159T71 -131T45 -97T33 -68L31 -57Q92 -66 127 -66Q199 -66 272 -45T411 17T523 128T575 287Q574 356 556 408T512 490T448 541T378 570T307 586L336 647Q428 689 491 766T555
926Q555 1005 515 1053T408 1102Q365 1102 326 1072T287 991Q287 977 289 969Q251 928 197 928Q152 928 119 957T86 1036Q86 1112 187 1168T428 1225Q531 1225 610 1201T733 1136T799 1051T821 956Q821 783 578 655Q638 644 684 625T774 571T842 473T866 326Q866
224 824 139T715 -2T558 -97T377 -153T193 -170Z" />
<glyph unicode="4" glyph-name="four" horiz-adv-x="1071" d="M821 975V362Q881 362 911 363T977 375T1030 408Q1040 370 1040 332Q1040 276 996 235T862 193Q856 193 844 194T823 195Q823 125 823 64T827 -60T844 -168H575L582 193H82L51 225Q83 321 154 470T311
762Q410 928 509 1059T668 1229H831L827 1133L824 1065Q821 997 821 975ZM279 362H575L588 831Q589 866 598 926L606 985Q516 865 422 682Q338 524 279 362Z" />
<glyph unicode="5" glyph-name="five" horiz-adv-x="960" d="M199 1198H602Q717 1198 762 1205T834 1243Q841 1211 843 1187T839 1131T813 1079T751 1044T647 1028H303L295 770Q336 775 382 772T474 762T567 739T656 701T733 644T795 568T837 469T852 346Q852
244 816 158T720 12T579 -89T412 -150T233 -170Q183 -170 149 -153T103 -114T86 -74L82 -57Q144 -66 178 -66Q235 -66 289 -53T392 -10T479 62T539 168T565 307Q565 395 543 461T485 563T411 617T332 641Q245 655 152 637L129 674L166 1174L199 1198Z" />
<glyph unicode="6" glyph-name="six" horiz-adv-x="1167" d="M633 98Q574 98 530 147T462 279T427 453T416 643V698Q436 711 492 725T592 739Q689 739 743 652T797 408Q797 261 754 180T633 98ZM694 868Q562 868 422 786Q444 1014 534 1131T739 1249Q813 1249
899 1213T1030 1110Q1062 1193 1021 1258T892 1356T698 1389Q644 1389 590 1377T480 1335T373 1262T278 1153T201 1006T150 816T131 580Q131 490 146 406T197 242T283 103T412 9T584 -27Q732 -27 845 46T1014 234T1071 487Q1071 585 1041 660T958 779T838 846T694
868Z" />
<glyph unicode="7" glyph-name="seven" horiz-adv-x="933" d="M664 1004L264 94Q212 -24 180 -68T117 -125Q176 -170 246 -170Q354 -170 410 -43L934 1165L901 1198H289H215Q99 1198 70 1235Q61 1199 61 1169T68 1111T97 1052T151 999T240 963T371 948Q578 948 664 1004Z" />
<glyph unicode="8" glyph-name="eight" horiz-adv-x="1120" d="M596 1389Q758 1389 857 1315T956 1120Q956 942 709 786Q767 743 806 713T893 638T969 555T1018 471T1038 379Q1038 262 973 169T794 25T543 -27Q360 -27 242 66T123 305Q123 427 209 534T406 688Q302
761 235 855T168 1038Q168 1195 283 1292T596 1389ZM473 633Q409 598 374 528T338 369Q338 317 349 273T384 189T454 127T561 104Q635 104 699 161T764 307Q764 349 737 394T668 477T574 556T473 633ZM426 1106Q426 1038 481 975T633 838Q675 866 706 928T737 1077Q737
1166 693 1216T573 1266Q507 1266 467 1224T426 1106Z" />
<glyph unicode="9" glyph-name="nine" horiz-adv-x="1183" d="M551 1102Q610 1102 654 1053T722 921T757 747T768 557V502Q747 489 691 475T592 461Q495 461 441 548T387 793Q387 939 430 1020T551 1102ZM489 332Q619 332 762 414Q740 186 650 69T444 -49Q370
-49 285 -13T154 90Q129 25 147 -26T215 -114T335 -169T485 -188Q562 -188 638 -163T790 -78T923 73T1017 304T1053 621Q1053 710 1038 794T987 958T901 1097T772 1191T600 1227Q452 1227 339 1154T170 966T113 713Q113 615 143 540T226 421T345 354T489 332Z"
/>
<glyph unicode=":" glyph-name="colon" horiz-adv-x="528" d="M127 111Q127 170 169 212T270 254Q326 254 367 212T408 111Q408 54 367 14T270 -27Q212 -27 170 13T127 111ZM127 662Q127 721 169 763T270 805Q326 805 367 763T408 662Q408 605 367 565T270 524Q212
524 170 564T127 662Z" />
<glyph unicode=";" glyph-name="semicolon" horiz-adv-x="528" d="M127 662Q127 721 169 763T270 805Q326 805 367 763T408 662Q408 605 367 565T270 524Q212 524 170 564T127 662ZM106 -291L55 -225Q122 -162 153 -100T184 14Q184 42 179 60T162 86T145 96T129
100Q121 149 161 201T264 254Q325 254 367 213T410 96Q410 16 332 -90T106 -291Z" />
<glyph unicode="&lt;" glyph-name="less" horiz-adv-x="755" d="M369 563L596 866L641 911Q686 956 707 963Q618 982 514 957T358 872L92 553Q81 540 60 523L39 506L60 490Q80 474 96 455L367 133Q418 76 520 51T711 45Q683 57 647 89T604 131L373 444Q357 465
328 486L299 508L328 528Q358 549 369 563Z" />
<glyph unicode="=" glyph-name="equal" horiz-adv-x="983" d="M92 588V754Q92 745 621 745Q675 745 723 745T808 746T870 751T905 762Q877 588 602 588Q575 588 359 589T129 590Q100 590 92 588ZM92 266V432Q92 424 621 424Q675 424 723 424T808 425T870 430T905
440Q877 266 602 266Q575 266 359 267T129 268Q100 268 92 266Z" />
<glyph unicode="&gt;" glyph-name="greater" horiz-adv-x="755" d="M381 563L154 866L109 911Q64 956 43 963Q132 982 235 958T391 872L657 553Q669 540 690 523L711 506L690 490Q670 474 653 455L383 133Q332 76 230 51T39 45Q67 57 102 89T145 131L377 444Q392
465 422 486L451 508L421 528Q391 549 381 563Z" />
<glyph unicode="?" glyph-name="question" horiz-adv-x="901" d="M377 389L324 354Q173 420 170 555Q169 614 191 670T248 773T327 864T413 955T492 1045T550 1146T573 1260Q573 1328 531 1384T403 1440Q352 1440 304 1404T256 1303Q256 1279 264 1245Q224 1192
162 1192Q102 1192 61 1227T20 1317Q20 1393 72 1450T211 1537T403 1567Q601 1567 711 1464T821 1212Q821 1139 795 1066T727 932T635 815T534 709T442 620T374 541T348 477T359 425T377 389ZM190 111Q190 170 232 212T334 254Q390 254 430 212T471 111Q471 54
431 14T334 -27Q275 -27 233 13T190 111Z" />
<glyph unicode="@" glyph-name="at" horiz-adv-x="1847" d="M991 1358Q1205 1358 1376 1264T1644 1004T1741 631Q1741 452 1677 296T1493 42T1225 -55Q1146 -55 1084 -2T1020 131Q974 61 908 19T770 -23Q679 -23 602 34T482 187T438 391Q438 581 521 732T746 965T1057
1047Q1144 1047 1280 1006Q1242 406 1251 168Q1253 112 1287 98T1365 103T1438 162Q1494 236 1532 346T1571 578Q1571 707 1520 824T1384 1026T1183 1161T942 1212Q757 1212 606 1114T368 843T281 455Q281 175 430 -18T811 -254Q905 -265 950 -236Q939 -286 917
-319T864 -369T803 -391T735 -397Q645 -397 560 -364T404 -274T275 -139T176 27T113 213T90 406Q90 599 161 775T354 1079T642 1282T991 1358ZM1022 934Q985 930 947 917T860 867T774 778T712 634T686 426Q686 315 742 230T868 145Q929 145 995 225L1022 934Z"
/>
<glyph unicode="A" glyph-name="A" horiz-adv-x="1263" d="M831 1221L1196 176Q1236 61 1274 0H946L942 33Q938 66 926 100L805 444H336L190 33L184 0H-10L451 1182Q477 1283 564 1337T784 1401Q804 1297 831 1221ZM756 580L571 1106L383 580H756Z" />
<glyph unicode="B" glyph-name="B" horiz-adv-x="1169" d="M242 0H199L205 147V1087Q205 1170 196 1221T178 1285T154 1315L170 1358L565 1368Q672 1371 757 1346T894 1277T972 1180T999 1067Q999 901 797 776Q1087 689 1087 422Q1087 229 945 115T563 0H242ZM530
694L489 696Q477 330 494 119H582Q706 119 771 188T836 354Q836 515 750 601T530 694ZM498 1233V1186Q498 1129 493 998T487 811H557Q638 811 694 799Q723 832 742 893T762 1008Q762 1102 706 1170T557 1235L498 1233Z" />
<glyph unicode="C" glyph-name="C" horiz-adv-x="1277" d="M721 -27Q519 -27 375 59T158 297T86 649Q86 974 278 1179T782 1384Q927 1384 1049 1332T1208 1204Q1208 1165 1164 1094T1055 993L1016 1024Q1016 1041 1005 1067T970 1123T917 1180T845 1223T758 1241Q666
1241 595 1200T480 1086T415 926T393 737Q393 614 419 507T495 317T627 187T811 139Q913 139 1031 198T1202 358Q1239 251 1178 160T994 20T721 -27Z" />
<glyph unicode="D" glyph-name="D" horiz-adv-x="1417" d="M674 0H201Q205 70 205 106V1073Q205 1128 203 1163T189 1243T154 1317L170 1360L666 1370Q769 1372 865 1347T1047 1269T1195 1140T1294 956T1331 721Q1331 569 1284 437T1153 208T945 56T674 0ZM698
133Q759 133 817 165T922 256T999 408T1028 614Q1028 787 968 929T802 1151T571 1227L500 1225Q500 1196 495 926T489 514Q489 327 496 133H698Z" />
<glyph unicode="E" glyph-name="E" horiz-adv-x="1052" d="M725 0H201L203 150V1087Q201 1170 195 1213T182 1271T154 1317L170 1360H512L889 1366Q924 1314 930 1247T915 1118H868Q859 1162 801 1193T678 1227L498 1235Q485 999 485 766H741Q772 766 789 767T830
777T872 803Q879 765 879 733Q879 606 692 606Q654 606 584 608T483 610Q482 477 486 318L489 158H848Q918 158 950 201Q956 158 956 133Q956 57 901 29T725 0Z" />
<glyph unicode="F" glyph-name="F" horiz-adv-x="995" d="M508 0H199L203 150V1087Q201 1170 195 1213T182 1271T154 1317L170 1360H512L889 1366Q924 1314 930 1247T915 1118H868Q859 1162 801 1193T678 1227L498 1235Q485 999 485 766H741Q772 766 789 767T830
777T872 803Q879 765 879 733Q879 606 692 606Q654 606 584 608T483 610Q482 477 486 318L489 158L494 94Q498 31 508 0Z" />
<glyph unicode="G" glyph-name="G" horiz-adv-x="1368" d="M811 123Q847 123 911 134L975 145V301Q975 374 966 420T949 478T920 516L936 561L958 568Q981 576 1024 583T1110 590Q1204 590 1260 563Q1249 391 1245 233L1243 45Q1202 45 1147 33Q1091 22 1030 9T879
-15T715 -27Q417 -27 252 158T86 649Q86 974 278 1179T782 1384Q927 1384 1049 1332T1208 1204Q1208 1165 1164 1094T1055 993L1016 1024Q1016 1041 1005 1067T970 1123T917 1180T845 1223T758 1241Q666 1241 595 1200T480 1086T415 926T393 737Q393 639 409 549T459
381T541 246T659 156T811 123Z" />
<glyph unicode="H" glyph-name="H" horiz-adv-x="1589" d="M1380 551Q1380 51 1405 0H1104Q1096 47 1096 129Q1096 183 1097 347T1098 616H489V539Q489 53 514 0H205Q209 136 209 1100Q209 1155 204 1194T191 1252T174 1289T154 1317L170 1360L194 1367Q219 1374
264 1381T352 1389Q455 1389 510 1362Q495 1038 489 756H1098Q1100 905 1100 1100Q1100 1171 1090 1218T1072 1279T1044 1317L1061 1360L1085 1367Q1109 1374 1154 1381T1241 1389Q1343 1389 1401 1362Q1380 881 1380 551Z" />
<glyph unicode="I" glyph-name="I" horiz-adv-x="698" d="M205 0Q209 136 209 1100Q209 1155 204 1194T191 1252T174 1289T154 1317L170 1360L194 1367Q219 1374 264 1381T352 1389Q455 1389 510 1362Q489 988 489 551Q489 53 514 0H205Z" />
<glyph unicode="J" glyph-name="J" horiz-adv-x="677" d="M477 551Q477 525 478 452T479 336V131Q479 30 448 -56T363 -202T242 -304T99 -367T-49 -387Q-147 -387 -199 -346T-252 -242Q-252 -197 -216 -167T-125 -137Q-90 -137 -59 -152Q-54 -185 -27 -209T33
-233Q127 -233 164 -144T201 137Q201 1018 197 1100Q197 1145 194 1178T186 1232T173 1269T157 1295T141 1317L158 1360L182 1367Q207 1374 252 1381T340 1389Q442 1389 498 1362Q477 1022 477 551Z" />
<glyph unicode="K" glyph-name="K" horiz-adv-x="1302" d="M205 0Q209 136 209 1100Q209 1155 204 1194T191 1252T174 1289T154 1317L170 1360L194 1367Q219 1374 264 1381T352 1389Q455 1389 510 1362Q497 1133 489 733L905 1192Q942 1234 942 1280Q942 1308
932 1323L946 1360Q968 1372 1019 1380T1124 1389Q1222 1389 1268 1362Q1225 1259 1126 1163L721 784Q859 592 1078 303T1323 0H950Q869 132 725 344T489 670V551Q489 53 514 0H205Z" />
<glyph unicode="L" glyph-name="L" horiz-adv-x="997" d="M205 0Q209 136 209 1100Q209 1155 204 1194T191 1252T174 1289T154 1317L170 1360L194 1367Q219 1374 264 1381T352 1389Q455 1389 510 1362Q489 988 489 551Q489 248 496 133H700Q776 133 846 165T926
242H975Q998 186 989 115T946 0H205Z" />
<glyph unicode="M" glyph-name="M" horiz-adv-x="1890" d="M1004 -51L891 -25Q811 -7 768 41T711 137Q515 608 369 1008Q373 908 373 803Q368 265 362 117Q362 46 373 0H188L193 43Q211 377 242 1243Q227 1270 212 1288T190 1309T178 1317L197 1360Q279 1389 379
1389Q500 1389 549 1354Q583 1219 725 853T967 262Q1016 389 1084 590T1176 852L1341 1290Q1350 1312 1372 1327T1420 1351T1486 1365T1554 1373T1629 1377T1696 1380Q1672 949 1700 131Q1705 41 1716 0H1407L1409 133Q1409 169 1410 236T1411 334Q1411 804 1407
897L1401 1014L1368 899L1057 137Q1047 107 1030 41T1004 -51Z" />
<glyph unicode="N" glyph-name="N" horiz-adv-x="1593" d="M1229 510V509Q1229 508 1229 510T1230 526T1231 561T1231 629T1232 734T1233 888T1233 1098Q1233 1237 1165 1317L1184 1360Q1199 1370 1244 1379T1321 1389Q1381 1389 1413 1364Q1389 820 1389 391Q1389
160 1399 0H1221L459 840L422 897Q384 954 375 977Q381 942 381 877Q381 827 379 734T377 590Q377 161 397 0H217V33Q219 299 219 764V1106Q219 1186 207 1230T162 1317L178 1360Q201 1375 263 1385T373 1389Q436 1313 776 937T1161 512Q1188 483 1216 418L1245
352L1237 418Q1229 483 1229 510Z" />
<glyph unicode="O" glyph-name="O" horiz-adv-x="1431" d="M741 117Q644 117 561 203T432 429T385 723Q385 864 424 981T535 1168T692 1237Q785 1237 866 1157T995 937T1044 635Q1044 418 957 268T741 117ZM764 1384Q569 1384 414 1293T170 1035T82 657Q82 526
114 414T200 222T326 85T478 1T643 -27Q853 -27 1013 70T1259 332T1350 705Q1350 868 1304 999T1177 1213T991 1340T764 1384Z" />
<glyph unicode="P" glyph-name="P" horiz-adv-x="1165" d="M506 0H203L205 80V81V82V83V85V86V87V88V89V90V91V93V94V95V96V97V98V100V101V102V103V104V105V107V108V109V110V111V113V114V115V116V117V118V120V121V122V123V124V126V127V128V129V130V132V133V134V135V137V138V139V140V141V143V144V145V146V148V149V150V151V152V154V155V156V157V159V160V161V162V164V165V166V167V169V170V171V172V174V175V176V177V179V180V181V183V184V185V186V188V189V190V191V193V194V195V197V198V199V200V202V203V204V206V207V208V210V211V212V213V215V216V217V219V220V221V223V224V225V227V228V229V231V232V233V235V236V237V238V240V241V242V244V245V247V248V249V251V252V253V255V256V257V259V260V261V263V264V265V267V268V269V271V272V274V275V276V278V279V280V282V283V285V286V287V289V290V291V293V294V296V297V298V300V301V303V304V305V307V308V310V311V312V314V315V317V318V319V321V322V324V325V327V328V329V331V332V334V335V336V338V339V341V342V344V345V346V348V349V351V352V354V355V357V358V359V361V362V364V365V367V368V370V371V373V374V375V377V378V380V381V383V384V386V387V389V390V392V393V395V396V397V399V400V402V403V405V406V408V409V411V412V414V415V417V418V420V421V423V424V426V427V429V430V432V433V435V436V438V439V441V442V444V445V447V449V450V452V453V455V456V458V459V461V462V464V465V467V468V470V471V473V475V476V478V479V481V482V484V485V487V488V490V492V493V495V496V498V499V501V503V504V506V507V509V510V512V513V515V517V518V520V521V523V525V526V528V529V531V532V534V536V537V539V540V542V544V545V547V548V550V552V553V555V556V558V560V561V563V564V566V568V569V571V572V574V576V577V579V581V582V584V585V587V589V590V592V594V595V597V598V600V602V603V605V607V608V610V612V613V615V617V618V620V621V623V625V626V628V630V631V633V635V636V638V640V641V643V645V646V648V650V651V653V655V656V658V660V661V663V665V666V668V670V672V673V675V677V678V680V682V683V685V687V688V690V692V694V695V697V699V700V702V704V705V707V709V711V712V714V716V717V719V721V723V724V726V728V730V731V733V735V736V738V740V742V743V745V747V749V750V752V754V756V757V759V761V763V764V766V768V770V771V773V775V777V778V780V782V784V785V787V789V791V792V794V796V798V800V801V803V805V807V808V810V812V814V816V817V819V821V823V825V826V828V830V832V834V835V837V839V841V843V844V846V848V850V852V853V855V857V859V861V863V864V866V868V870V872V873V875V877V879V881V883V885V886V888V890V892V894V896V897V899V901V903V905V907V909V910V912V914V916V918V920V922V923V925V927V929V931V933V935V937V938V940V942V944V946V948V950V952V954V955V957V959V961V963V965V967V969V971V973V975V976V978V980V982V984V986V988V990V992V994V996V998V1000V1002V1004V1005V1007V1009V1011V1013V1015V1017V1019V1021V1023V1025V1027V1029V1031V1033V1035V1037V1039V1041V1043V1045V1047V1049V1051V1053V1055V1057V1059V1061V1063V1065V1067V1069V1072V1074V1076V1078V1080V1082V1084V1094Q205
1254 154 1317L170 1360L608 1370Q677 1371 742 1359T869 1316T979 1237T1054 1115T1083 946Q1083 821 1011 721T820 565T563 510Q539 510 485 514Q485 102 506 0ZM487 887L485 637Q510 631 561 631Q687 631 755 709T823 899Q823 966 806 1026T754 1135T663 1211T535
1235L494 1233Q491 1202 487 887Z" />
<glyph unicode="Q" glyph-name="Q" horiz-adv-x="1431" d="M764 1384Q569 1384 414 1293T170 1035T82 657Q82 528 112 418T196 228T319 91T467 5T629 -27Q642 -134 706 -218T858 -344T1042 -387Q1166 -387 1234 -347T1350 -215Q1307 -233 1214 -233Q1087 -233
973 -176T788 -12Q957 18 1084 119T1278 371T1350 705Q1350 868 1304 999T1177 1213T991 1340T764 1384ZM741 117Q644 117 561 203T432 429T385 723Q385 864 424 981T535 1168T692 1237Q785 1237 866 1157T995 937T1044 635Q1044 418 957 268T741 117Z" />
<glyph unicode="R" glyph-name="R" horiz-adv-x="1259" d="M506 0H203L205 80V1092Q205 1252 154 1315L170 1358L608 1368Q677 1369 742 1357T870 1314T979 1236T1054 1115T1083 946Q1083 815 1005 712T797 555Q825 533 850 504L1108 188L1280 0H920Q896 54 856
115T763 242T669 355T569 467Q548 492 528 510Q521 511 507 512T485 514Q485 102 506 0ZM487 887L485 637Q510 631 561 631Q687 631 755 709T823 899Q823 966 806 1026T754 1134T664 1210T535 1233L494 1231Q491 1199 487 887Z" />
<glyph unicode="S" glyph-name="S" horiz-adv-x="1013" d="M459 -27Q309 -27 205 41T100 201Q100 248 133 295Q152 229 255 183T451 137Q493 137 531 145T606 171T664 225T686 311Q686 355 653 398T568 478T453 556T326 642T210 739T125 860T92 1006Q92 1077 118
1144T195 1267T327 1355T508 1389Q573 1389 630 1379T737 1348T810 1316T870 1282Q879 1259 879 1210Q879 1102 817 1040L770 1051Q749 1117 697 1165T590 1233T485 1253Q443 1253 405 1241T336 1193T305 1104Q305 1052 340 1005T431 918T556 839T691 752T815 653T907
530T942 375Q942 207 807 90T459 -27Z" />
<glyph unicode="T" glyph-name="T" horiz-adv-x="1146" d="M428 0H737Q713 51 713 551Q713 957 725 1227H905Q978 1227 1027 1196T1083 1118H1130Q1142 1169 1145 1206T1136 1289T1092 1374L780 1360H367L55 1374Q23 1335 11 1290T1 1207T16 1118H63Q70 1165 119
1196T242 1227H422Q432 1179 432 1100Q432 136 428 0Z" />
<glyph unicode="U" glyph-name="U" horiz-adv-x="1480" d="M483 487Q483 395 510 325T583 213T686 152T805 131Q887 131 961 163T1086 260T1137 406L1143 1098Q1144 1181 1126 1228T1075 1317L1094 1360Q1109 1370 1154 1379T1231 1389Q1291 1389 1323 1364Q1298
797 1298 457Q1298 337 1254 244T1132 92T949 3T719 -27Q619 -27 528 3T363 90T245 244T201 461Q201 482 202 761T203 1100Q203 1145 200 1178T192 1232T179 1269T163 1295T147 1317L164 1360L188 1367Q213 1374 258 1381T346 1389Q449 1389 504 1362Q483 952 483
487Z" />
<glyph unicode="V" glyph-name="V" horiz-adv-x="1306" d="M793 -51L848 137L1241 1081Q1263 1135 1283 1220T1307 1360Q1248 1389 1182 1389Q1122 1389 1049 1360L1036 1327Q1081 1279 1081 1208Q1081 1168 1055 1079Q1020 970 901 671T745 225Q682 381 551 768T381
1343Q330 1389 213 1389Q114 1389 29 1360L10 1317Q17 1315 29 1303T63 1261T111 1170T166 1024L483 137Q489 117 500 96T532 49T587 4T664 -25L793 -51Z" />
<glyph unicode="W" glyph-name="W" horiz-adv-x="1980" d="M1507 -51L1563 137L1909 1081Q1930 1135 1950 1222T1974 1364Q1948 1373 1920 1381T1864 1389Q1797 1389 1722 1360L1710 1327Q1755 1279 1755 1208Q1755 1168 1729 1079Q1705 1004 1641 813T1533 483T1460
225Q1409 351 1283 750T1116 1343Q1065 1389 948 1389Q849 1389 764 1360L745 1317Q752 1315 764 1303T798 1261T846 1170T901 1024L936 920Q895 793 859 683T786 448T725 225Q673 353 547 751T381 1343Q330 1389 213 1389Q114 1389 29 1360L10 1317Q17 1315 29
1303T63 1261T111 1170T166 1024Q209 900 308 595T463 137Q476 89 519 41T643 -25L772 -51L827 137L1016 682Q1122 350 1198 137Q1211 89 1254 41T1378 -25L1507 -51Z" />
<glyph unicode="X" glyph-name="X" horiz-adv-x="1130" d="M84 100L455 641L244 1020Q221 1062 192 1115T152 1188T124 1236T97 1274T72 1296T39 1317L57 1360Q141 1389 246 1389Q360 1389 406 1343Q417 1318 438 1269T474 1191T532 1081T649 868L653 880Q657
893 668 909L782 1081Q850 1182 850 1241Q850 1289 823 1319L842 1360Q902 1389 975 1389Q1046 1389 1106 1360Q1097 1304 1053 1220T961 1067L719 717L1030 147Q1054 104 1098 52L1141 0H797L535 494L498 430L285 111Q266 75 253 38L240 0H12L84 100Z" />
<glyph unicode="Y" glyph-name="Y" horiz-adv-x="1103" d="M739 0H444V33Q444 117 445 233T446 383Q446 582 444 616Q431 630 401 680L205 1024Q178 1073 148 1130T105 1210T74 1259T40 1296T0 1317L18 1360Q86 1393 195 1393Q326 1393 365 1343Q402 1240 503
1040T639 778L648 806Q658 834 672 858L825 1135Q852 1183 852 1227T823 1317L842 1360Q904 1384 973 1384Q1030 1384 1090 1348Q1090 1312 1053 1219T979 1067L725 666Q725 630 724 522T723 352Q723 107 739 0Z" />
<glyph unicode="Z" glyph-name="Z" horiz-adv-x="1181" d="M14 0L10 53L66 121L707 1153L766 1219H307Q235 1219 186 1188T131 1110H82Q69 1153 67 1196T77 1288T121 1374L432 1360H1147L1155 1313L1134 1286Q1112 1258 1098 1235L461 221L403 154H911Q984 154
1032 184T1087 262H1137Q1158 206 1150 131T1098 0H14Z" />
<glyph unicode="[" glyph-name="bracketleft" horiz-adv-x="507" d="M416 1483V1364H225V-23H416V-141H-6V1483H416Z" />
<glyph unicode="\" glyph-name="backslash" horiz-adv-x="657" d="M438 -498H639Q461 209 354 720T246 1343Q233 1364 191 1388T111 1413Q14 1413 14 1346Q14 1331 19 1311T33 1262T45 1223Q105 1000 250 361T438 -498Z" />
<glyph unicode="]" glyph-name="bracketright" horiz-adv-x="509" d="M39 1483V1364H229V-23H39V-141H461V1483H39Z" />
<glyph unicode="^" glyph-name="asciicircum" horiz-adv-x="1277" d="M1174 645H952L639 1237L319 645H102L547 1460H727L1174 645Z" />
<glyph unicode="_" glyph-name="underscore" horiz-adv-x="966" d="M1042 -143L963 -287H0V-143H1042Z" />
<glyph unicode="`" glyph-name="grave" horiz-adv-x="692" d="M246 1503H78L168 1348Q286 1157 479 1157Q514 1157 555 1175T596 1202Q560 1214 531 1233T480 1280T445 1327T414 1380Q397 1412 385 1429T354 1466T308 1494T246 1503Z" />
<glyph unicode="a" glyph-name="a" horiz-adv-x="1042" d="M895 147Q930 80 1038 80V35Q1000 11 932 -8T809 -27Q743 -27 694 23T637 123Q601 52 523 13T367 -27Q215 -27 135 53T55 244Q55 341 115 414T273 524T487 561Q550 561 612 545Q616 631 616 672Q616 733
611 777T590 862T545 923T469 944Q403 944 367 897T344 782Q290 739 229 739Q180 739 146 769T111 848Q111 943 220 1004T469 1065Q658 1065 766 983T874 745Q874 715 872 623T870 442Q870 199 895 147ZM612 471Q577 469 544 466T464 450T382 418T324 365T299 285Q299
217 341 175T438 133Q534 133 616 193Q612 285 612 471Z" />
<glyph unicode="b" glyph-name="b" horiz-adv-x="1157" d="M211 113Q174 186 174 297Q174 663 179 1107L180 1225Q180 1318 150 1382T76 1458V1495L104 1510Q132 1526 183 1541T281 1556Q376 1556 414 1508T453 1362Q448 1258 445 1189T439 1076T433 1007T424
969Q469 1009 535 1037T664 1065Q744 1065 817 1032T950 937T1045 772T1081 541Q1081 457 1061 376T997 221T894 93T747 6T561 -27Q435 -27 338 10T211 113ZM555 909Q485 909 432 872Q432 792 430 662T428 481Q428 412 430 363T438 266T455 187T483 132T526 97T584
86Q648 86 695 125T767 226T802 352T813 479Q813 673 742 791T555 909Z" />
<glyph unicode="c" glyph-name="c" horiz-adv-x="985" d="M76 475Q76 635 142 770T325 985T586 1065Q731 1065 830 1012T930 870Q930 816 891 780T801 743Q746 743 707 788Q705 845 668 884T563 924Q494 924 440 868T358 725T330 541Q330 443 361 356T458 212T608
154Q820 154 942 338Q954 300 954 266Q954 184 896 117T738 11T522 -27Q428 -27 349 3T208 93T111 250T76 475Z" />
<glyph unicode="d" glyph-name="d" horiz-adv-x="1167" d="M1169 80V35Q1048 -27 944 -27Q896 -27 845 2T770 86Q637 -27 494 -27Q412 -27 340 1T207 85T111 239T76 465Q76 549 96 633T160 794T262 932T406 1027T588 1063Q629 1063 685 1052T741 1036Q741 1099
740 1152T737 1250T729 1328T711 1388T681 1431T635 1458V1495L663 1510Q691 1526 742 1541T840 1556Q885 1556 914 1548T966 1517T1001 1450T1012 1337V1311Q1012 1293 1007 1175T997 886T991 567Q991 482 992 428T996 319T1004 233T1018 172T1040 127T1071 101T1114
85T1169 80ZM600 121Q681 121 733 158L735 393V903Q625 930 571 930Q508 930 461 891T390 790T355 663T344 535Q344 340 415 231T600 121Z" />
<glyph unicode="e" glyph-name="e" horiz-adv-x="1042" d="M944 571L926 563Q875 543 788 543L334 549Q336 526 336 473Q340 324 425 239T616 154Q706 154 798 196T961 342Q978 277 961 218T902 115T799 39T669 -10T528 -27Q437 -27 359 1T216 87T115 242T76 465Q76
630 132 764T295 976T539 1055Q619 1055 683 1036T789 987T861 914T907 833T931 749T942 675T944 618V571ZM526 930Q485 930 453 908T399 844T363 755T336 645Q395 646 514 651T698 657Q697 706 687 752T657 840T603 905T526 930Z" />
<glyph unicode="f" glyph-name="f" horiz-adv-x="698" d="M426 1034H604Q634 1034 668 1041T713 1067Q719 1046 719 1018Q719 895 543 895Q527 895 488 898T430 901V780Q430 155 465 0H178Q180 39 184 290T188 664Q188 863 170 889Q150 918 126 938T86 964L72
969L82 1030Q122 1034 156 1062T197 1147Q206 1243 234 1318T301 1440T390 1516T487 1557T586 1569Q694 1569 762 1521T831 1405Q831 1357 797 1327T715 1296Q674 1296 637 1323Q641 1360 618 1389T535 1419Q416 1419 416 1251Q416 1244 417 1231T418 1210L428
1071Q428 1047 426 1034Z" />
<glyph unicode="g" glyph-name="g" horiz-adv-x="1093" d="M324 188Q324 158 348 141T414 118T510 110T623 106T742 99T856 76T951 32T1017 -46T1042 -166Q1042 -272 964 -354T768 -477T520 -518Q398 -518 296 -492T128 -410T61 -276Q61 -219 102 -187T201 -154Q271
-154 324 -213Q315 -238 315 -268Q315 -336 379 -377T530 -418Q637 -418 723 -366T809 -231Q809 -209 801 -193T779 -165T745 -146T702 -134T652 -127T597 -124T541 -121Q486 -119 444 -115T353 -102T268 -78T202 -41T155 15T139 92Q139 159 180 211T295 297Q214
345 158 432T102 631Q102 746 157 845T315 1004T545 1065Q681 1065 770 993L811 1034H971Q993 1034 1005 1035T1039 1045T1075 1075Q1092 1031 1092 1006Q1092 953 1056 926T961 899Q916 899 870 920Q852 928 844 924Q967 805 967 657Q967 558 930 477T831 345T690
266T524 238Q442 238 356 262Q324 219 324 188ZM514 952Q468 952 433 911T381 816T365 709Q365 539 416 436T557 332Q621 332 665 398T709 571Q709 745 658 848T514 952Z" />
<glyph unicode="h" glyph-name="h" horiz-adv-x="1230" d="M440 881Q474 917 505 944T581 1002T677 1048T782 1065Q907 1065 987 987T1067 795Q1067 766 1066 597T1065 408Q1065 172 1087 0H809L806 22Q803 44 803 66Q803 146 805 330T807 596Q807 745 782 809T684
874Q604 874 548 847T440 774V670Q440 522 440 410T445 193T463 0H176Q183 335 183 779T186 1225Q186 1326 154 1386T82 1458V1495L110 1510Q139 1526 191 1541T291 1556Q387 1556 423 1506T459 1352Q459 1301 451 1144T440 881Z" />
<glyph unicode="i" glyph-name="i" horiz-adv-x="614" d="M449 446Q449 160 471 0H184L195 698Q195 762 184 811T159 885T128 924T102 943T90 946V983Q207 1055 311 1055Q459 1055 459 860Q459 830 454 759T449 647V446ZM160 1317Q160 1377 202 1418T303 1460Q359
1460 399 1419T440 1317Q440 1260 400 1220T303 1180Q244 1180 202 1220T160 1317Z" />
<glyph unicode="j" glyph-name="j" horiz-adv-x="612" d="M158 1317Q158 1377 200 1418T301 1460Q357 1460 397 1419T438 1317Q438 1260 398 1220T301 1180Q242 1180 200 1220T158 1317ZM193 721V-29Q193 -122 162 -219T75 -384T-43 -453Q1 -510 59 -510Q129 -510
197 -479T322 -388T414 -235T449 -25V688Q450 706 452 744T456 806T457 866T452 925T437 976T409 1018T365 1044T301 1055Q251 1055 198 1037T116 1001L88 983V946Q132 931 162 872T193 721Z" />
<glyph unicode="k" glyph-name="k" horiz-adv-x="1187" d="M446 571L780 846Q839 892 842 932Q842 951 817 967V1004Q839 1019 894 1037T995 1055Q1033 1055 1058 1038T1083 991Q1083 955 1062 920T1008 858T936 803T862 754L657 616Q672 598 720 528T822 387T940
241T1072 115T1198 57V20Q1116 -27 979 -27Q881 -27 809 22T672 172Q635 229 588 304T518 415T475 478T446 504Q446 368 447 305T453 159T469 0H182L193 1225Q194 1325 161 1386T88 1458V1495L116 1510Q145 1526 197 1541T297 1556Q393 1556 429 1506T465 1352Q465
1315 456 1026T446 571Z" />
<glyph unicode="l" glyph-name="l" horiz-adv-x="612" d="M469 0H182Q188 314 188 582L193 1225Q193 1326 161 1386T88 1458V1495L116 1510Q145 1526 197 1541T297 1556Q393 1556 429 1506T465 1352Q465 1289 459 1208Q446 989 446 670Q446 521 446 409T451 192T469 0Z" />
<glyph unicode="m" glyph-name="m" horiz-adv-x="1843" d="M1087 0H809L806 22Q803 44 803 66Q803 146 805 330T807 596Q809 743 782 808T684 874Q604 874 548 847T440 774Q440 287 446 162Q454 53 463 0H176L178 63L186 698Q187 777 171 832T135 909T98 938L82
946V983Q199 1055 303 1055Q362 1055 397 1023T442 940L440 883Q617 1065 782 1065Q884 1065 955 1012T1053 874Q1106 944 1202 1004T1395 1065Q1520 1065 1598 987T1679 795Q1675 579 1676 371T1700 0H1421L1418 22Q1415 44 1415 66Q1415 146 1417 330T1419 596Q1421
743 1395 808T1296 874Q1164 874 1067 786Q1063 574 1064 368T1087 0Z" />
<glyph unicode="n" glyph-name="n" horiz-adv-x="1230" d="M1087 0H809L806 22Q803 44 803 66Q803 146 805 330T807 596Q809 743 782 808T684 874Q604 874 548 847T440 774Q440 287 446 162Q454 53 463 0H176L178 63L186 698Q187 777 171 832T135 909T98 938L82
946V983Q199 1055 303 1055Q363 1055 399 1021T442 938L440 881Q476 917 506 943T582 1001T678 1048T782 1065Q907 1065 985 987T1067 795Q1063 579 1064 371T1087 0Z" />
<glyph unicode="o" glyph-name="o" horiz-adv-x="1159" d="M354 586Q354 644 365 704T397 818T456 907T541 942Q649 942 726 806T803 475Q803 310 744 201T600 92Q531 92 474 159T386 339T354 586ZM76 502Q76 491 77 475T82 423T95 350T121 268T160 183T219 104T300
36T408 -9T545 -27Q699 -27 823 52T1015 261T1083 539Q1083 666 1045 768T940 934T791 1031T614 1065Q460 1065 337 991T145 788T76 502Z" />
<glyph unicode="p" glyph-name="p" horiz-adv-x="1183" d="M469 -492H182Q182 -488 184 -397T186 -240V-25Q186 230 190 478L193 727Q191 813 162 872T88 946V983L116 1001Q145 1019 199 1037T305 1055Q377 1055 413 1023T446 950Q492 996 558 1030T688 1065Q769
1065 843 1032T977 937T1072 772T1108 541Q1108 457 1088 376T1024 221T921 93T774 6T588 -27Q533 -27 446 -8Q446 -133 450 -267T469 -492ZM582 899Q511 899 453 870Q446 576 446 231L449 117Q528 96 610 96Q663 96 704 122T770 189T811 283T832 386T838 485Q838
674 767 786T582 899Z" />
<glyph unicode="q" glyph-name="q" horiz-adv-x="1175" d="M1022 -485H745V-258Q745 -199 746 -117T748 -29V55Q635 -27 494 -27Q412 -27 340 1T207 85T111 239T76 465Q76 549 96 631T160 788T263 920T408 1010T594 1044Q634 1044 805 1026Q939 1010 1020 1010L1022
920V846Q1022 765 1016 645Q1006 352 1006 227Q1006 -208 1016 -420Q1016 -449 1022 -485ZM600 127Q674 127 748 178L743 762Q743 816 733 893Q651 913 571 913Q516 913 474 884T408 812T369 710T349 601T344 500Q344 322 415 225T600 127Z" />
<glyph unicode="r" glyph-name="r" horiz-adv-x="868" d="M459 0H180Q180 41 185 289T190 698Q190 770 179 821T148 897T115 932T86 946V983Q198 1055 305 1055Q434 1055 434 932Q434 929 429 893T422 836Q452 908 535 986T705 1065Q791 1065 832 1023T874 924Q874
869 837 830T741 791Q738 791 731 792T719 793Q703 874 625 874Q576 874 540 852T484 795T451 706T436 600T432 479Q432 313 437 211T459 0Z" />
<glyph unicode="s" glyph-name="s" horiz-adv-x="874" d="M705 754L668 762Q652 811 623 848T558 904T490 931T424 940Q362 940 312 912T262 821Q262 788 292 758T372 702T481 651T599 592T708 523T788 431T819 313Q819 153 706 63T414 -27Q276 -27 179 46T82
215Q82 261 104 295Q111 224 209 167T408 109Q488 109 545 138T602 231Q602 267 563 301T466 361T340 423T214 498T117 599T78 737Q78 887 184 976T467 1065Q630 1065 758 987Q766 959 767 923T754 838T705 754Z" />
<glyph unicode="t" glyph-name="t" horiz-adv-x="794" d="M457 1204L434 1034H625Q655 1034 689 1041T733 1067Q739 1046 739 1018Q739 895 563 895Q547 895 497 898T428 901V440Q427 411 428 379T430 316T440 256T462 206T499 171T557 158Q619 158 686 178T770
233Q796 169 759 108T644 10T475 -27Q381 -27 320 -5T226 63T182 166T170 309Q170 385 180 535T190 754Q190 872 172 895Q131 947 70 969L80 1030Q89 1030 104 1034T150 1052T220 1106T293 1204H457Z" />
<glyph unicode="u" glyph-name="u" horiz-adv-x="1218" d="M170 223Q170 248 171 356T172 618Q172 782 141 868Q132 896 114 915T80 940L66 946V983Q107 1010 166 1032T274 1055T355 1040T403 996T424 934T430 856Q430 794 426 660T422 453Q422 395 423 358T432
276T453 206T492 164T553 147Q632 147 694 174T793 244Q793 267 795 417T797 686Q797 913 692 946V983Q722 1006 784 1030T895 1055Q946 1055 979 1040T1029 996T1051 937T1057 866Q1057 860 1056 816T1054 646T1053 315Q1053 150 1098 115Q1137 80 1214 80V35Q1193
19 1122 -4T995 -27Q951 -27 916 -9T861 37T828 96T813 156Q754 78 657 26T446 -27Q328 -27 250 48T170 223Z" />
<glyph unicode="v" glyph-name="v" horiz-adv-x="999" d="M932 799L641 115L592 -55L520 -35Q445 -21 404 26T354 115L176 684Q152 761 122 818T65 902T24 939T2 952L0 989Q36 1015 89 1035T188 1055Q274 1055 314 1014T379 883Q399 767 539 375Q540 372 560 325T582
272L590 314Q598 357 608 385L748 754Q776 833 776 883Q776 932 741 952V989Q770 1016 817 1035T907 1055Q983 1055 983 979Q983 926 932 799Z" />
<glyph unicode="w" glyph-name="w" horiz-adv-x="1681" d="M1614 799L1323 115L1274 -55L1202 -35Q1127 -21 1086 26T1036 115L866 659L641 115L592 -55L520 -35Q445 -21 404 26T354 115L176 684Q152 761 122 818T65 902T24 939T2 952L0 989Q36 1015 89 1035T188
1055Q274 1055 314 1014T379 883Q399 767 539 375Q540 372 560 325T582 272L590 314Q598 357 608 385L752 754Q766 787 778 850Q770 865 761 878T745 901T730 919T716 932T704 941T694 947T688 950L684 952L682 989Q718 1015 771 1035T870 1055Q956 1055 996 1014T1061
883Q1081 767 1221 375Q1251 299 1264 272Q1264 279 1272 317T1290 385L1430 754Q1458 833 1458 883Q1458 932 1423 952V989Q1452 1016 1499 1035T1589 1055Q1665 1055 1665 979Q1665 926 1614 799Z" />
<glyph unicode="x" glyph-name="x" horiz-adv-x="985" d="M684 0L645 80L647 78Q609 135 555 221T465 369Q460 362 449 339T432 309Q390 254 354 207T282 105T223 0H0L393 479L258 682Q241 709 208 766T155 852T102 912T33 952V989Q61 1009 80 1021T132 1044T199
1055Q248 1055 281 1046T337 1014T371 972T402 915T436 854L530 705L553 653L564 673Q575 693 586 705L680 815Q723 870 723 909Q723 936 700 952V989Q729 1016 776 1035T866 1055Q903 1055 920 1034T938 979Q938 944 930 917T902 857T846 786T757 691T627 559Q670
492 719 416T814 271T910 130T1006 0H684Z" />
<glyph unicode="y" glyph-name="y" horiz-adv-x="1007" d="M485 2L461 12Q437 21 408 49T367 115L188 684Q169 747 145 797T100 874T59 920T29 945T14 952L12 989Q48 1015 101 1035T201 1055Q287 1055 327 1014T391 883Q411 767 551 375Q553 371 575 325T600 272L610
314Q620 357 631 385L760 754Q788 833 788 883Q788 932 754 952L750 989Q778 1016 825 1035T915 1055Q987 1055 987 979Q987 926 936 799L528 -205Q506 -259 491 -292T452 -371T404 -444T346 -498T272 -537T182 -549Q90 -549 38 -479T6 -305Q26 -330 70 -346T160
-362Q236 -362 289 -334T365 -252L461 -41L485 2Z" />
<glyph unicode="z" glyph-name="z" horiz-adv-x="989" d="M373 137H684Q774 137 833 168T899 246H944Q953 233 957 190T952 90T911 0H623H39L31 53L50 73Q70 93 84 115L549 846Q574 884 596 895H315Q226 895 167 864T100 786H55Q47 799 43 846T48 953T88 1047L377
1034H928L936 989L914 968Q891 947 874 920L424 193Q414 176 394 156L373 137Z" />
<glyph unicode="{" glyph-name="braceleft" horiz-adv-x="681" d="M2 623Q156 623 156 1202Q156 1288 186 1357T264 1466T365 1528T471 1550Q510 1550 561 1537T637 1503Q520 1502 459 1419T397 1184Q397 1043 379 926T334 737T277 627T221 584L234 576Q247 568
266 547T309 475T351 353T384 158T397 -117Q396 -146 397 -175T398 -231T404 -284T416 -330T438 -369T472 -399T521 -419T586 -426Q599 -426 637 -422Q606 -459 542 -480T422 -502Q317 -502 237 -423T156 -211Q156 21 144 181T108 422T60 537T2 578V623Z" />
<glyph unicode="|" glyph-name="bar" horiz-adv-x="212" d="M213 1548V-520H0V1548H213Z" />
<glyph unicode="}" glyph-name="braceright" horiz-adv-x="681" d="M680 623Q526 623 526 1202Q526 1288 496 1357T418 1466T317 1528T211 1550Q172 1550 121 1537T45 1503Q162 1502 223 1419T285 1184Q285 1043 303 926T348 737T405 627T461 584L448 576Q435
568 416 547T373 475T331 353T298 158T285 -117Q286 -146 285 -175T284 -231T278 -284T266 -330T244 -369T210 -399T161 -419T96 -426Q81 -426 45 -422Q76 -459 140 -480T260 -502Q365 -502 445 -423T526 -211Q526 21 538 181T574 422T622 537T680 578V623Z" />
<glyph unicode="~" glyph-name="asciitilde" horiz-adv-x="1079" d="M170 520Q240 571 291 571Q325 571 437 537T631 502Q718 502 798 558T897 698Q814 643 756 643Q713 643 596 678T422 713Q337 713 261 658T170 520Z" />
<glyph unicode="&#xa0;" glyph-name="uni00A0" horiz-adv-x="460" />
<glyph unicode="&#xdf;" glyph-name="germandbls" horiz-adv-x="1171" d="M449 0H154V39Q154 47 157 145T164 368T168 569Q168 843 150 868Q130 897 104 918T61 946L45 952L55 1014L70 1018Q86 1022 105 1031T141 1061T160 1110Q164 1167 180 1224T234 1344T328
1456T474 1535T678 1567Q772 1567 849 1542T977 1460T1028 1323Q1028 1265 1004 1202T944 1084T873 978T813 874T788 780Q788 755 809 731T864 685T939 637T1020 580T1095 512T1150 424T1171 313Q1171 155 1061 64T772 -27Q656 -27 590 21T524 139Q524 183 549
221Q549 176 614 143T758 109Q831 109 879 143T928 250Q928 280 900 312T831 372T741 436T651 508T581 593T553 696Q553 758 581 817T664 958Q701 1015 721 1049T760 1145T780 1268Q780 1427 623 1427Q535 1427 478 1365T420 1194Q420 1170 417 929T414 641Q414
212 449 0Z" />
<glyph unicode="&#xe0;" glyph-name="agrave" horiz-adv-x="1042" d="M895 147Q930 80 1038 80V35Q1000 11 932 -8T809 -27Q743 -27 694 23T637 123Q601 52 523 13T367 -27Q215 -27 135 53T55 244Q55 341 115 414T273 524T487 561Q550 561 612 545Q616 631 616
672Q616 733 611 777T590 862T545 923T469 944Q403 944 367 897T344 782Q290 739 229 739Q180 739 146 769T111 848Q111 943 220 1004T469 1065Q658 1065 766 983T874 745Q874 715 872 623T870 442Q870 199 895 147ZM612 471Q577 469 544 466T464 450T382 418T324
365T299 285Q299 217 341 175T438 133Q534 133 616 193Q612 285 612 471ZM314 1503H146L236 1348Q354 1157 547 1157Q582 1157 623 1175T664 1202Q628 1214 599 1233T548 1280T513 1327T482 1380Q465 1412 453 1429T422 1466T376 1494T314 1503Z" />
<glyph unicode="&#xe1;" glyph-name="aacute" horiz-adv-x="1042" d="M689 1503H856L766 1348Q649 1157 455 1157Q420 1157 379 1175T338 1202Q375 1214 404 1233T455 1280T490 1327T521 1380Q543 1422 559 1444T608 1484T689 1503ZM895 147Q930 80 1038 80V35Q1000
11 932 -8T809 -27Q743 -27 694 23T637 123Q601 52 523 13T367 -27Q215 -27 135 53T55 244Q55 341 115 414T273 524T487 561Q550 561 612 545Q616 631 616 672Q616 733 611 777T590 862T545 923T469 944Q403 944 367 897T344 782Q290 739 229 739Q180 739 146 769T111
848Q111 943 220 1004T469 1065Q658 1065 766 983T874 745Q874 715 872 623T870 442Q870 199 895 147ZM612 471Q577 469 544 466T464 450T382 418T324 365T299 285Q299 217 341 175T438 133Q534 133 616 193Q612 285 612 471Z" />
<glyph unicode="&#xe2;" glyph-name="acircumflex" horiz-adv-x="1042" d="M532 1503Q567 1503 599 1482T648 1439T698 1370Q721 1336 737 1315T776 1267T822 1224T870 1202Q870 1194 830 1176T753 1157Q712 1157 682 1163T632 1180T596 1206T567 1240L538 1282Q526
1301 517 1332L508 1364L499 1332Q490 1301 477 1282Q462 1261 451 1242T423 1208T386 1181T335 1164T262 1157Q227 1157 186 1175T145 1202Q170 1207 194 1223T246 1272T288 1321Q296 1332 331 1380Q373 1438 408 1470T483 1503H532ZM895 147Q930 80 1038 80V35Q1000
11 932 -8T809 -27Q743 -27 694 23T637 123Q601 52 523 13T367 -27Q215 -27 135 53T55 244Q55 341 115 414T273 524T487 561Q550 561 612 545Q616 631 616 672Q616 733 611 777T590 862T545 923T469 944Q403 944 367 897T344 782Q290 739 229 739Q180 739 146 769T111
848Q111 943 220 1004T469 1065Q658 1065 766 983T874 745Q874 715 872 623T870 442Q870 199 895 147ZM612 471Q577 469 544 466T464 450T382 418T324 365T299 285Q299 217 341 175T438 133Q534 133 616 193Q612 285 612 471Z" />
<glyph unicode="&#xe3;" glyph-name="atilde" horiz-adv-x="1042" d="M144 1239Q159 1321 235 1376T396 1432Q452 1432 569 1397T729 1362Q789 1362 871 1417Q853 1334 773 1278T605 1221Q524 1221 412 1255T265 1290Q212 1290 144 1239ZM895 147Q930 80 1038
80V35Q1000 11 932 -8T809 -27Q743 -27 694 23T637 123Q601 52 523 13T367 -27Q215 -27 135 53T55 244Q55 341 115 414T273 524T487 561Q550 561 612 545Q616 631 616 672Q616 733 611 777T590 862T545 923T469 944Q403 944 367 897T344 782Q290 739 229 739Q180
739 146 769T111 848Q111 943 220 1004T469 1065Q658 1065 766 983T874 745Q874 715 872 623T870 442Q870 199 895 147ZM612 471Q577 469 544 466T464 450T382 418T324 365T299 285Q299 217 341 175T438 133Q534 133 616 193Q612 285 612 471Z" />
<glyph unicode="&#xe4;" glyph-name="adieresis" horiz-adv-x="1042" d="M802 1377T802 1325T768 1237T688 1200Q640 1200 607 1236T573 1325Q573 1378 606 1415T688 1452Q734 1452 768 1415ZM426 1377T426 1325T392 1237T311 1200Q264 1200 230 1236T196 1325T230
1414T311 1452Q357 1452 391 1415ZM895 147Q930 80 1038 80V35Q1000 11 932 -8T809 -27Q743 -27 694 23T637 123Q601 52 523 13T367 -27Q215 -27 135 53T55 244Q55 341 115 414T273 524T487 561Q550 561 612 545Q616 631 616 672Q616 733 611 777T590 862T545 923T469
944Q403 944 367 897T344 782Q290 739 229 739Q180 739 146 769T111 848Q111 943 220 1004T469 1065Q658 1065 766 983T874 745Q874 715 872 623T870 442Q870 199 895 147ZM612 471Q577 469 544 466T464 450T382 418T324 365T299 285Q299 217 341 175T438 133Q534
133 616 193Q612 285 612 471Z" />
<glyph unicode="&#xe5;" glyph-name="aring" horiz-adv-x="1042" d="M527 1532Q607 1532 662 1484T717 1354Q717 1269 651 1213T484 1157Q405 1157 351 1204T297 1337Q297 1424 361 1478T527 1532ZM510 1235Q540 1235 561 1259T582 1333Q582 1391 556 1422T500
1454Q471 1454 451 1431T430 1360Q430 1301 454 1268T510 1235ZM895 147Q930 80 1038 80V35Q1000 11 932 -8T809 -27Q743 -27 694 23T637 123Q601 52 523 13T367 -27Q215 -27 135 53T55 244Q55 341 115 414T273 524T487 561Q550 561 612 545Q616 631 616 672Q616
733 611 777T590 862T545 923T469 944Q403 944 367 897T344 782Q290 739 229 739Q180 739 146 769T111 848Q111 943 220 1004T469 1065Q658 1065 766 983T874 745Q874 715 872 623T870 442Q870 199 895 147ZM612 471Q577 469 544 466T464 450T382 418T324 365T299
285Q299 217 341 175T438 133Q534 133 616 193Q612 285 612 471Z" />
<glyph unicode="&#xe6;" glyph-name="ae" horiz-adv-x="1564" d="M1468 592L1450 584Q1424 573 1386 569T1313 563L848 532Q852 352 935 253T1141 154Q1231 154 1323 196T1485 342Q1493 311 1493 279Q1493 189 1427 117T1262 9T1053 -27Q937 -27 840 20T684 164Q640
86 546 30T367 -27Q215 -27 135 53T55 244Q55 307 79 358T146 445T242 507T361 549T488 573T616 586Q616 594 617 604T618 618Q618 668 617 701T611 776T596 844T571 896T529 932T469 944Q410 944 376 902T342 805Q342 801 343 794T344 782Q294 748 242 748Q187
748 149 775T111 848Q111 909 164 960T298 1038T469 1065Q688 1065 784 924Q902 1055 1063 1055Q1141 1055 1204 1037T1309 991T1381 922T1428 845T1453 765T1465 694T1468 639V592ZM322 256Q332 196 371 165T459 133Q510 133 565 160T653 225Q612 329 612 465V504Q566
496 522 481T428 441T349 376T319 285Q319 266 322 256ZM1051 930Q1010 930 978 904T923 830T887 732T860 618L1223 680Q1221 781 1175 855T1051 930Z" />
<glyph unicode="&#xe7;" glyph-name="ccedilla" horiz-adv-x="985" d="M76 475Q76 635 142 770T325 985T586 1065Q731 1065 830 1012T930 870Q930 816 891 780T801 743Q746 743 707 788Q705 845 668 884T563 924Q494 924 440 868T358 725T330 541Q330 443 361
356T458 212T608 154Q820 154 942 338Q954 300 954 266Q954 153 847 73T582 -23Q573 -43 573 -61Q573 -73 587 -82T624 -96T672 -111T720 -137T757 -181T772 -252Q772 -346 701 -419T520 -492Q428 -492 381 -455T334 -365Q334 -335 350 -305Q378 -333 412 -347T465
-363T514 -365Q550 -365 582 -349T614 -305Q614 -288 583 -272T515 -243T447 -200T416 -127Q416 -77 492 -25Q403 -20 329 12T198 104T108 258T76 475Z" />
<glyph unicode="&#xe8;" glyph-name="egrave" horiz-adv-x="1042" d="M944 571L926 563Q875 543 788 543L334 549Q336 526 336 473Q340 324 425 239T616 154Q706 154 798 196T961 342Q978 277 961 218T902 115T799 39T669 -10T528 -27Q437 -27 359 1T216 87T115
242T76 465Q76 630 132 764T295 976T539 1055Q619 1055 683 1036T789 987T861 914T907 833T931 749T942 675T944 618V571ZM526 930Q485 930 453 908T399 844T363 755T336 645Q395 646 514 651T698 657Q697 706 687 752T657 840T603 905T526 930ZM367 1503H199L289
1348Q407 1157 600 1157Q635 1157 676 1175T717 1202Q681 1214 652 1233T601 1280T566 1327T535 1380Q518 1412 506 1429T475 1466T429 1494T367 1503Z" />
<glyph unicode="&#xe9;" glyph-name="eacute" horiz-adv-x="1042" d="M752 1503H920L829 1348Q712 1157 518 1157Q483 1157 442 1175T401 1202Q438 1214 467 1233T518 1280T553 1327T584 1380Q601 1412 612 1429T644 1466T690 1494T752 1503ZM944 571L926 563Q875
543 788 543L334 549Q336 526 336 473Q340 324 425 239T616 154Q706 154 798 196T961 342Q978 277 961 218T902 115T799 39T669 -10T528 -27Q437 -27 359 1T216 87T115 242T76 465Q76 630 132 764T295 976T539 1055Q619 1055 683 1036T789 987T861 914T907 833T931
749T942 675T944 618V571ZM526 930Q485 930 453 908T399 844T363 755T336 645Q395 646 514 651T698 657Q697 706 687 752T657 840T603 905T526 930Z" />
<glyph unicode="&#xea;" glyph-name="ecircumflex" horiz-adv-x="1042" d="M577 1503Q612 1503 644 1482T693 1439T743 1370Q766 1336 782 1315T821 1267T867 1224T915 1202Q915 1194 875 1176T798 1157Q757 1157 727 1163T677 1180T641 1206T612 1240L583 1282Q571
1301 562 1332L553 1364L544 1332Q535 1301 522 1282Q507 1261 496 1242T468 1208T431 1181T380 1164T307 1157Q272 1157 231 1175T190 1202Q215 1207 239 1223T291 1272T332 1321Q341 1332 376 1380Q418 1438 453 1470T528 1503H577ZM944 571L926 563Q875 543
788 543L334 549Q336 526 336 473Q340 324 425 239T616 154Q706 154 798 196T961 342Q978 277 961 218T902 115T799 39T669 -10T528 -27Q437 -27 359 1T216 87T115 242T76 465Q76 630 132 764T295 976T539 1055Q619 1055 683 1036T789 987T861 914T907 833T931
749T942 675T944 618V571ZM526 930Q485 930 453 908T399 844T363 755T336 645Q395 646 514 651T698 657Q697 706 687 752T657 840T603 905T526 930Z" />
<glyph unicode="&#xeb;" glyph-name="edieresis" horiz-adv-x="1042" d="M835 1377T835 1325T801 1237T721 1200Q673 1200 640 1236T606 1325Q606 1378 639 1415T721 1452Q767 1452 801 1415ZM459 1377T459 1325T425 1237T344 1200Q297 1200 263 1236T229 1325T263
1414T344 1452Q390 1452 424 1415ZM944 571L926 563Q875 543 788 543L334 549Q336 526 336 473Q340 324 425 239T616 154Q706 154 798 196T961 342Q978 277 961 218T902 115T799 39T669 -10T528 -27Q437 -27 359 1T216 87T115 242T76 465Q76 630 132 764T295 976T539
1055Q619 1055 683 1036T789 987T861 914T907 833T931 749T942 675T944 618V571ZM526 930Q485 930 453 908T399 844T363 755T336 645Q395 646 514 651T698 657Q697 706 687 752T657 840T603 905T526 930Z" />
<glyph unicode="&#xec;" glyph-name="igrave" horiz-adv-x="614" d="M449 446Q449 160 471 0H184L195 698Q195 762 184 811T159 885T128 924T102 943T90 946V983Q207 1055 311 1055Q459 1055 459 860Q459 830 454 759T449 647V446ZM104 1503H-63L27 1348Q144 1157
338 1157Q373 1157 414 1175T455 1202Q418 1214 389 1233T338 1280T303 1327T272 1380Q250 1422 234 1444T185 1484T104 1503Z" />
<glyph unicode="&#xed;" glyph-name="iacute" horiz-adv-x="614" d="M449 446Q449 160 471 0H184L195 698Q195 762 184 811T159 885T128 924T102 943T90 946V983Q207 1055 311 1055Q459 1055 459 860Q459 830 454 759T449 647V446ZM465 1503H633L543 1348Q425
1157 231 1157Q196 1157 156 1175T115 1202Q151 1214 180 1233T231 1280T266 1327T297 1380Q314 1412 326 1429T357 1466T403 1494T465 1503Z" />
<glyph unicode="&#xee;" glyph-name="icircumflex" horiz-adv-x="614" d="M449 446Q449 160 471 0H184L195 698Q195 762 184 811T159 885T128 924T102 943T90 946V983Q207 1055 311 1055Q459 1055 459 860Q459 830 454 759T449 647V446ZM342 1503Q377 1503 409
1482T458 1439T508 1370Q540 1323 560 1296T614 1240T680 1202Q680 1194 639 1176T563 1157Q529 1157 503 1161T457 1173T423 1192T396 1217T372 1247T348 1282T326 1332L317 1364L308 1332Q300 1301 287 1282Q272 1261 261 1242T233 1208T196 1181T145 1164T72
1157Q36 1157 -4 1175T-45 1202Q-20 1207 4 1223T56 1272T97 1321T141 1380Q227 1503 293 1503H342Z" />
<glyph unicode="&#xef;" glyph-name="idieresis" horiz-adv-x="614" d="M449 446Q449 160 471 0H184L195 698Q195 762 184 811T159 885T128 924T102 943T90 946V983Q207 1055 311 1055Q459 1055 459 860Q459 830 454 759T449 647V446ZM242 1377T242 1325T208 1237T127
1200T47 1236T12 1325T46 1414T127 1452T207 1415ZM618 1377T618 1325T584 1237T504 1200Q456 1200 423 1236T389 1325Q389 1378 422 1415T504 1452Q550 1452 584 1415Z" />
<glyph unicode="&#xf1;" glyph-name="ntilde" horiz-adv-x="1230" d="M262 1239Q277 1321 353 1376T514 1432Q570 1432 687 1397T847 1362Q907 1362 989 1417Q971 1334 891 1278T723 1221Q642 1221 530 1255T383 1290Q330 1290 262 1239ZM1087 0H809L806 22Q803
44 803 66Q803 146 805 330T807 596Q809 743 782 808T684 874Q604 874 548 847T440 774Q440 287 446 162Q454 53 463 0H176L178 63L186 698Q187 777 171 832T135 909T98 938L82 946V983Q199 1055 303 1055Q363 1055 399 1021T442 938L440 881Q476 917 506 943T582
1001T678 1048T782 1065Q907 1065 985 987T1067 795Q1063 579 1064 371T1087 0Z" />
<glyph unicode="&#xf2;" glyph-name="ograve" horiz-adv-x="1159" d="M354 586Q354 644 365 704T397 818T456 907T541 942Q649 942 726 806T803 475Q803 310 744 201T600 92Q531 92 474 159T386 339T354 586ZM76 502Q76 491 77 475T82 423T95 350T121 268T160
183T219 104T300 36T408 -9T545 -27Q699 -27 823 52T1015 261T1083 539Q1083 666 1045 768T940 934T791 1031T614 1065Q460 1065 337 991T145 788T76 502ZM420 1503H252L342 1348Q460 1157 653 1157Q688 1157 729 1175T770 1202Q734 1214 705 1233T654 1280T619
1327T588 1380Q571 1412 559 1429T528 1466T482 1494T420 1503Z" />
<glyph unicode="&#xf3;" glyph-name="oacute" horiz-adv-x="1159" d="M730 1503H897L807 1348Q690 1157 496 1157Q461 1157 420 1175T379 1202Q416 1214 445 1233T496 1280T531 1327T562 1380Q584 1422 600 1444T649 1484T730 1503ZM354 586Q354 644 365 704T397
818T456 907T541 942Q649 942 726 806T803 475Q803 310 744 201T600 92Q531 92 474 159T386 339T354 586ZM76 502Q76 491 77 475T82 423T95 350T121 268T160 183T219 104T300 36T408 -9T545 -27Q699 -27 823 52T1015 261T1083 539Q1083 666 1045 768T940 934T791
1031T614 1065Q460 1065 337 991T145 788T76 502Z" />
<glyph unicode="&#xf4;" glyph-name="ocircumflex" horiz-adv-x="1159" d="M616 1503Q651 1503 683 1482T732 1439T782 1370Q805 1336 821 1315T860 1267T906 1224T954 1202Q954 1194 914 1176T837 1157Q796 1157 766 1163T716 1180T680 1206T651 1240L622 1282Q610
1301 601 1332L592 1364L583 1332Q574 1301 561 1282Q546 1261 535 1242T507 1208T470 1181T419 1164T346 1157Q311 1157 270 1175T229 1202Q254 1207 278 1223T330 1272T372 1321Q380 1332 415 1380Q457 1438 492 1470T567 1503H616ZM354 586Q354 644 365 704T397
818T456 907T541 942Q649 942 726 806T803 475Q803 310 744 201T600 92Q531 92 474 159T386 339T354 586ZM76 502Q76 491 77 475T82 423T95 350T121 268T160 183T219 104T300 36T408 -9T545 -27Q699 -27 823 52T1015 261T1083 539Q1083 666 1045 768T940 934T791
1031T614 1065Q460 1065 337 991T145 788T76 502Z" />
<glyph unicode="&#xf5;" glyph-name="otilde" horiz-adv-x="1159" d="M219 1239Q234 1321 310 1376T471 1432Q527 1432 644 1397T804 1362Q864 1362 946 1417Q928 1334 848 1278T680 1221Q599 1221 487 1255T340 1290Q287 1290 219 1239ZM354 586Q354 644 365
704T397 818T456 907T541 942Q649 942 726 806T803 475Q803 310 744 201T600 92Q531 92 474 159T386 339T354 586ZM76 502Q76 491 77 475T82 423T95 350T121 268T160 183T219 104T300 36T408 -9T545 -27Q699 -27 823 52T1015 261T1083 539Q1083 666 1045 768T940
934T791 1031T614 1065Q460 1065 337 991T145 788T76 502Z" />
<glyph unicode="&#xf6;" glyph-name="odieresis" horiz-adv-x="1159" d="M893 1377T893 1325T859 1237T779 1200Q731 1200 698 1236T664 1325Q664 1378 697 1415T779 1452Q825 1452 859 1415ZM517 1377T517 1325T483 1237T402 1200Q355 1200 321 1236T287 1325T321
1414T402 1452Q448 1452 482 1415ZM354 586Q354 644 365 704T397 818T456 907T541 942Q649 942 726 806T803 475Q803 310 744 201T600 92Q531 92 474 159T386 339T354 586ZM76 502Q76 491 77 475T82 423T95 350T121 268T160 183T219 104T300 36T408 -9T545 -27Q699
-27 823 52T1015 261T1083 539Q1083 666 1045 768T940 934T791 1031T614 1065Q460 1065 337 991T145 788T76 502Z" />
<glyph unicode="&#xf8;" glyph-name="oslash" horiz-adv-x="1159" d="M8 66L150 201Q118 261 100 336T79 444T76 502Q76 659 144 787T336 990T614 1065Q782 1065 907 963Q980 1038 1012 1077Q1060 1047 1073 1030Q1087 1016 1090 1003T1083 974T1062 947T1028
914T993 879L989 874Q1083 739 1083 539Q1083 390 1016 261T824 53T545 -27Q336 -27 215 106L94 -18L8 66ZM803 475Q803 584 778 672L543 438L399 295Q434 200 485 146T600 92Q685 92 744 201T803 475ZM354 586Q354 502 369 414L549 588L737 782Q700 857 649 899T541
942Q494 942 457 908T398 819T365 704T354 586Z" />
<glyph unicode="&#xf9;" glyph-name="ugrave" horiz-adv-x="1218" d="M170 223Q170 248 171 356T172 618Q172 782 141 868Q132 896 114 915T80 940L66 946V983Q107 1010 166 1032T274 1055T355 1040T403 996T424 934T430 856Q430 794 426 660T422 453Q422 395
423 358T432 276T453 206T492 164T553 147Q632 147 694 174T793 244Q793 267 795 417T797 686Q797 913 692 946V983Q722 1006 784 1030T895 1055Q946 1055 979 1040T1029 996T1051 937T1057 866Q1057 860 1056 816T1054 646T1053 315Q1053 150 1098 115Q1137 80
1214 80V35Q1193 19 1122 -4T995 -27Q951 -27 916 -9T861 37T828 96T813 156Q754 78 657 26T446 -27Q328 -27 250 48T170 223ZM465 1503H297L387 1348Q505 1157 698 1157Q733 1157 774 1175T815 1202Q779 1214 750 1233T699 1280T664 1327T633 1380Q616 1412 604
1429T573 1466T527 1494T465 1503Z" />
<glyph unicode="&#xfa;" glyph-name="uacute" horiz-adv-x="1218" d="M744 1503H911L821 1348Q704 1157 510 1157Q475 1157 434 1175T393 1202Q430 1214 459 1233T510 1280T545 1327T576 1380Q598 1422 614 1444T663 1484T744 1503ZM170 223Q170 248 171 356T172
618Q172 782 141 868Q132 896 114 915T80 940L66 946V983Q107 1010 166 1032T274 1055T355 1040T403 996T424 934T430 856Q430 794 426 660T422 453Q422 395 423 358T432 276T453 206T492 164T553 147Q632 147 694 174T793 244Q793 267 795 417T797 686Q797 913
692 946V983Q722 1006 784 1030T895 1055Q946 1055 979 1040T1029 996T1051 937T1057 866Q1057 860 1056 816T1054 646T1053 315Q1053 150 1098 115Q1137 80 1214 80V35Q1193 19 1122 -4T995 -27Q951 -27 916 -9T861 37T828 96T813 156Q754 78 657 26T446 -27Q328
-27 250 48T170 223Z" />
<glyph unicode="&#xfb;" glyph-name="ucircumflex" horiz-adv-x="1218" d="M627 1503Q662 1503 694 1482T743 1439T793 1370Q816 1336 832 1315T871 1267T917 1224T965 1202Q965 1194 925 1176T848 1157Q807 1157 777 1163T727 1180T691 1206T662 1240L633 1282Q621
1301 612 1332L603 1364L594 1332Q585 1301 572 1282Q557 1261 546 1242T518 1208T481 1181T430 1164T357 1157Q322 1157 281 1175T240 1202Q265 1207 289 1223T341 1272T382 1321Q391 1332 426 1380Q468 1438 503 1470T578 1503H627ZM170 223Q170 248 171 356T172
618Q172 782 141 868Q132 896 114 915T80 940L66 946V983Q107 1010 166 1032T274 1055T355 1040T403 996T424 934T430 856Q430 794 426 660T422 453Q422 395 423 358T432 276T453 206T492 164T553 147Q632 147 694 174T793 244Q793 267 795 417T797 686Q797 913
692 946V983Q722 1006 784 1030T895 1055Q946 1055 979 1040T1029 996T1051 937T1057 866Q1057 860 1056 816T1054 646T1053 315Q1053 150 1098 115Q1137 80 1214 80V35Q1193 19 1122 -4T995 -27Q951 -27 916 -9T861 37T828 96T813 156Q754 78 657 26T446 -27Q328
-27 250 48T170 223Z" />
<glyph unicode="&#xfc;" glyph-name="udieresis" horiz-adv-x="1218" d="M907 1377T907 1325T873 1237T793 1200Q745 1200 712 1236T678 1325Q678 1378 711 1415T793 1452Q839 1452 873 1415ZM531 1377T531 1325T497 1237T416 1200Q369 1200 335 1236T301 1325T335
1414T416 1452Q462 1452 496 1415ZM170 223Q170 248 171 356T172 618Q172 782 141 868Q132 896 114 915T80 940L66 946V983Q107 1010 166 1032T274 1055T355 1040T403 996T424 934T430 856Q430 794 426 660T422 453Q422 395 423 358T432 276T453 206T492 164T553
147Q632 147 694 174T793 244Q793 267 795 417T797 686Q797 913 692 946V983Q722 1006 784 1030T895 1055Q946 1055 979 1040T1029 996T1051 937T1057 866Q1057 860 1056 816T1054 646T1053 315Q1053 150 1098 115Q1137 80 1214 80V35Q1193 19 1122 -4T995 -27Q951
-27 916 -9T861 37T828 96T813 156Q754 78 657 26T446 -27Q328 -27 250 48T170 223Z" />
<glyph unicode="&#xff;" glyph-name="ydieresis" horiz-adv-x="1007" d="M860 1377T860 1325T826 1237T746 1200Q698 1200 665 1236T631 1325Q631 1378 664 1415T746 1452Q792 1452 826 1415ZM484 1377T484 1325T450 1237T369 1200Q322 1200 288 1236T254 1325T288
1414T369 1452Q415 1452 449 1415ZM485 2L461 12Q437 21 408 49T367 115L188 684Q169 747 145 797T100 874T59 920T29 945T14 952L12 989Q48 1015 101 1035T201 1055Q287 1055 327 1014T391 883Q411 767 551 375Q553 371 575 325T600 272L610 314Q620 357 631 385L760
754Q788 833 788 883Q788 932 754 952L750 989Q778 1016 825 1035T915 1055Q987 1055 987 979Q987 926 936 799L528 -205Q506 -259 491 -292T452 -371T404 -444T346 -498T272 -537T182 -549Q90 -549 38 -479T6 -305Q26 -330 70 -346T160 -362Q236 -362 289 -334T365
-252L461 -41L485 2Z" />
<glyph unicode="&#x131;" glyph-name="dotlessi" horiz-adv-x="614" d="M449 446Q449 160 471 0H184L195 698Q195 762 184 811T159 885T128 924T102 943T90 946V983Q207 1055 311 1055Q459 1055 459 860Q459 830 454 759T449 647V446Z" />
<glyph unicode="&#x153;" glyph-name="oe" horiz-adv-x="1759" d="M1661 571L1642 563Q1592 543 1505 543L1040 549Q1041 380 1128 267T1333 154Q1423 154 1515 196T1677 342Q1698 261 1667 190T1571 73T1420 0T1245 -27Q1146 -27 1050 18T905 137Q850 68 750
21T545 -27Q471 -27 408 -10T301 36T220 103T161 182T121 268T96 350T83 422T77 475T76 502Q76 659 144 787T336 990T614 1065Q710 1065 806 1019T950 903Q995 967 1080 1011T1255 1055Q1335 1055 1400 1036T1506 987T1578 914T1624 833T1648 749T1659 675T1661
618V571ZM354 586Q354 453 385 340T474 159T600 92Q685 92 744 201T803 475Q803 670 726 806T541 942Q494 942 457 908T398 819T365 704T354 586ZM1243 930Q1161 930 1107 851T1034 645Q1093 646 1221 651T1415 657Q1414 706 1404 752T1374 840T1320 905T1243 930Z"
/>
<glyph unicode="&#x192;" glyph-name="florin" horiz-adv-x="989" d="M625 874Q604 413 557 156Q542 74 526 7T484 -132T427 -257T351 -361T252 -443T127 -495T-29 -514Q-131 -514 -205 -474T-279 -367Q-279 -319 -228 -291T-106 -262Q-91 -262 -53 -266Q-59 -286
-59 -301Q-59 -332 -39 -351T18 -371Q88 -371 145 -301T240 -117T304 128T345 397T365 635T371 805Q371 842 361 869T330 911T302 931T276 942L299 1008Q340 1012 376 1040T428 1128Q459 1248 513 1335T630 1469T755 1535T877 1556Q963 1556 1031 1521T1100 1430Q1100
1383 1053 1349T946 1315Q905 1315 860 1335Q855 1409 805 1409Q786 1409 769 1403T740 1384T717 1355T698 1316T684 1271T673 1219T664 1162T656 1103T649 1042Q646 1018 641 1008H821Q851 1008 885 1015T930 1040Q932 1030 932 1010Q932 868 760 868Q744 868
693 871T625 874Z" />
</font>
</defs>
</svg>
